<svg xmlns="http://www.w3.org/2000/svg" xmlns:xlink="http://www.w3.org/1999/xlink" width="113" height="40" viewBox="0 0 113 40"><defs><path id="upp4a" d="M51.042 1458.802c2.75.09 5.244 1.27 7.071 3.114-5.56 4.004-7.48 10.32-3.55 6.83 2.101-1.858 4.004-3.808 6.074-4.881 1.285-.666 2.902-1.315 4.247-.877 2.07.68 1.873 3.43.575 4.957-2.342 2.629-5.533 4.533-8.056 7.027-3.066 3.022-5.59 7.767-3.324 11.258-6.166-4.624-13.16-9.853-13.16-17.65 0-5.592 4.531-9.974 10.123-9.778zm15.942 24.073c-1.33.5-2.87.65-4.276.317-.8-.181-1.496-.528-1.949-1.042-.89-.951-.953-2.48.588-4.52 1.8-2.371 4.262-4.562 6.44-6.738 1.1-1.103 2.914-2.478 4.05-.907.602.83.92 2.087.95 3.55.03 2.147-.319 3.824-1.118 5.29-1.073 1.92-2.66 3.295-4.685 4.05z"/><path id="upp4b" d="M68.556 1456.792c5.668-.544 9.475 2.734 10.653 5.727 1.497 3.764-.013 8.568-1.797 11.697-.063.11-.144.216-.223.318a3.539 3.539 0 0 1-.237.28c-.146.157-.304.3-.482.422a1.568 1.568 0 0 1-.447.226.607.607 0 0 1-.358.017.348.348 0 0 1-.213-.21.6.6 0 0 1-.037-.192.811.811 0 0 1 .043-.31c.022-.062.047-.122.07-.183.047-.122.09-.245.135-.369a22.35 22.35 0 0 0 .483-1.532 21.304 21.304 0 0 0 .364-1.594 16.832 16.832 0 0 0 .212-1.62 12.65 12.65 0 0 0 .029-1.613 10.476 10.476 0 0 0-.185-1.569 9.073 9.073 0 0 0-.185-.757 8.215 8.215 0 0 0-.25-.733s-.002-.008-.005-.01c-1.177-2.994-4.985-6.257-10.653-5.727-.65.06-1.27.21-1.89.315-1.208.183-1.116-.633.184-1.253a14.401 14.401 0 0 1 4.789-1.33z"/><path id="upp4c" d="M152.008 1465.26c-.874-.662-2.069-1.003-3.582-1.003-3.242 0-7.997 1.322-7.997 5.075v2.367c0 .917.064 1.599.234 2.068.172.449.448.832.833 1.13.511.384 1.172.683 1.941.875.766.193 1.641.299 2.642.299.299 0 2.261-.021 2.539-.043v-2.197c-.192.022-2.091.044-2.346.044-.832 0-1.471-.108-1.898-.321-.427-.192-.641-.511-.641-.938 0-.682 1.11-1.108 3.306-1.258.449-.042.81-.064 1.066-.085 1.898-.15 3.242-.491 4.031-1.002.789-.511 1.174-1.302 1.174-2.346 0-1.13-.427-2.005-1.302-2.665zm-3.049 3.646c-.341.19-1.152.363-2.432.49-.064 0-.19.02-.319.043-1.216.106-2.025.299-2.452.533-.023-.042-.023-.086-.023-.15v-.234c0-.896.343-1.6 1.068-2.154.724-.554 1.662-.831 2.813-.831.576 0 1.025.128 1.345.384.341.255.512.597.512 1.023 0 .405-.171.704-.512.896z"/><path id="upp4d" d="M137.763 1466.09c-2.495-2.302-8.209-2.26-10.534.235-.873.96-1.278 2.282-1.278 3.966v9.384h3.39v-5.034a4.672 4.672 0 0 0 1.663 1.09c.64.234 1.365.36 2.197.36 1.875 0 3.39-.554 4.541-1.62 1.174-1.065 1.75-2.474 1.75-4.2 0-1.706-.576-3.093-1.729-4.18zm-2.814 6.483c-.598.554-1.365.853-2.367.853-.98 0-1.77-.299-2.345-.853-.599-.576-.896-1.322-.896-2.282 0-.938.297-1.706.896-2.28.575-.577 1.364-.855 2.345-.855.981 0 1.77.278 2.346.832.596.577.895 1.322.895 2.282 0 .981-.299 1.748-.874 2.303z"/><path id="upp4e" d="M109.349 1465.728c-2.432-1.983-7.72-1.792-10.044.255-1.153 1.024-1.728 2.325-1.728 3.925 0 1.62.575 2.922 1.728 3.923 1.173 1.002 2.686 1.494 4.563 1.494.853 0 1.577-.109 2.195-.343a4.251 4.251 0 0 0 1.643-.98v.725c0 .94-.255 1.6-.725 1.962-.491.362-1.343.554-2.58.554-.383 0-.725-.02-1.023-.085v2.496c.319.021.66.021 1.001.021 1.259 0 2.347-.128 3.241-.405a6.254 6.254 0 0 0 2.282-1.259c.427-.426.747-.895.939-1.45.192-.555.277-1.45.277-2.73v-3.582c0-2.026-.661-3.625-1.769-4.52zm-2.517 6.312c-.576.533-1.365.811-2.367.811-.981 0-1.77-.278-2.346-.81-.596-.534-.874-1.238-.874-2.133 0-.896.278-1.62.874-2.154.576-.533 1.365-.789 2.346-.789 1.002 0 1.791.256 2.367.79.575.533.874 1.257.874 2.153 0 .895-.299 1.6-.874 2.132z"/><path id="upp4f" d="M124.65 1466.688a2.466 2.466 0 0 0-.833-1.13c-.533-.405-1.173-.683-1.94-.875-.769-.213-1.643-.299-2.645-.299-.32 0-2.258 0-2.559.022v2.196c.214-.022 2.111-.042 2.346-.042.854 0 1.494.106 1.92.32.406.213.618.512.618.938 0 .704-1.088 1.131-3.285 1.28-.448.02-.809.041-1.064.064-1.899.17-3.263.49-4.03 1.001-.79.533-1.196 1.302-1.196 2.346 0 1.131.45 2.025 1.323 2.688.874.66 2.068.98 3.582.98 3.242 0 7.998-1.322 7.998-5.075v-2.346c0-.938-.087-1.62-.236-2.068zm-3.072 4.18c0 .873-.363 1.6-1.088 2.153-.703.555-1.64.832-2.813.832-.556 0-1.004-.129-1.344-.384a1.253 1.253 0 0 1-.49-1.024c0-.405.17-.704.49-.917.34-.192 1.173-.34 2.451-.469.065-.02.171-.02.32-.042 1.216-.129 2.027-.299 2.453-.534 0 .042.021.086.021.13z"/><path id="upp4g" d="M96.297 1466.688a2.445 2.445 0 0 0-.831-1.13c-.533-.405-1.173-.683-1.94-.875-.767-.213-1.641-.299-2.644-.299-.32 0-2.26 0-2.56.022v2.196c.215-.022 2.112-.042 2.347-.042.853 0 1.494.106 1.918.32.406.213.619.512.619.938 0 .704-1.087 1.131-3.284 1.28-.448.02-.81.041-1.065.064-1.9.17-3.263.49-4.03 1.001-.79.533-1.196 1.302-1.196 2.346 0 1.131.449 2.025 1.323 2.688.876.66 2.068.98 3.583.98 3.24 0 7.995-1.322 7.995-5.075v-2.346c0-.938-.084-1.62-.234-2.068zm-3.07 4.18c0 .873-.362 1.6-1.087 2.153-.703.555-1.641.832-2.814.832-.555 0-1.003-.129-1.344-.384a1.257 1.257 0 0 1-.491-1.024c0-.405.172-.704.49-.917.342-.192 1.175-.34 2.453-.469.065-.02.17-.02.319-.042 1.217-.129 2.027-.299 2.453-.534 0 .042.022.086.022.13z"/><path id="upp4h" d="M96.855 1463.34h2.835l-2.647 2.955-1.046-1.551z"/><path id="upp4i" d="M45.272 1446.421v3.456c0 .601-.2 1.067-.6 1.398-.4.331-.922.496-1.57.496-.654 0-1.182-.165-1.583-.496-.4-.33-.601-.797-.601-1.398v-3.456h1.228v3.456c0 .323.083.563.25.72.167.155.402.232.706.232.302 0 .534-.077.697-.232.163-.154.245-.394.245-.72v-3.456z"/><path id="upp4j" d="M48.871 1446.421l1.181 3.691h.021l1.195-3.69h1.616v5.273h-1.228v-1.308l.116-2.408-.022-.004-1.27 3.72h-.827l-1.257-3.688-.02.004.114 2.376v1.308h-1.227v-5.274z"/><path id="upp4k" d="M57.766 1450.67h-1.662l-.298 1.025h-1.232l1.703-5.274h1.315l1.706 5.274h-1.232zm-1.391-.942h1.119l-.551-1.887h-.021z"/><path id="upp4l" d="M67.189 1449.438H65.12v1.315h2.437v.942h-3.666v-5.274h3.674v.942H65.12v1.134h2.069z"/><path id="upp4m" d="M70.907 1446.421l1.181 3.691h.021l1.195-3.69h1.617v5.273h-1.229v-1.308l.116-2.408-.02-.004-1.273 3.72h-.826l-1.257-3.688-.02.004.114 2.376v1.308H69.3v-5.274z"/><path id="upp4n" d="M78.161 1449.888v1.808h-1.228v-5.274h2.141c.625 0 1.121.16 1.488.48.368.319.551.738.551 1.254 0 .52-.183.938-.55 1.256-.368.317-.864.476-1.489.476zm0-.942h.913c.266 0 .468-.073.607-.22a.788.788 0 0 0 .208-.563.818.818 0 0 0-.208-.576c-.139-.15-.34-.225-.607-.225h-.913z"/><path id="upp4o" d="M84.217 1449.673v2.022h-1.23v-5.274h2.03c.61 0 1.096.141 1.453.424.357.283.536.67.536 1.16 0 .272-.072.506-.216.702-.143.195-.355.355-.636.478.324.091.556.244.698.458.14.214.212.48.212.798v.334c0 .138.02.294.06.471.042.176.114.301.215.377v.072h-1.261c-.096-.075-.16-.208-.19-.399a3.411 3.411 0 0 1-.045-.528v-.319c0-.25-.066-.444-.2-.576-.132-.133-.326-.2-.582-.2zm0-.94h.808c.246 0 .434-.057.564-.169.13-.113.196-.274.196-.484a.697.697 0 0 0-.201-.52c-.134-.13-.323-.197-.567-.197h-.8z"/><path id="upp4p" d="M92.37 1449.438H90.3v1.315h2.437v.942h-3.666v-5.274h3.673v.942h-2.444v1.134h2.068z"/><path id="upp4q" d="M97.28 1450.296a.527.527 0 0 0-.186-.43c-.123-.102-.344-.21-.663-.323-.667-.21-1.16-.434-1.48-.675-.322-.24-.483-.587-.483-1.041 0-.442.192-.8.574-1.072.383-.273.87-.41 1.458-.41.585 0 1.063.15 1.436.452.373.3.554.687.542 1.16l-.008.022h-1.187a.666.666 0 0 0-.214-.513c-.143-.131-.34-.197-.59-.197-.247 0-.44.054-.58.163a.49.49 0 0 0-.21.402c0 .155.07.278.212.37.141.094.406.21.795.35.6.18 1.05.399 1.353.66.302.26.455.62.455 1.076 0 .464-.18.826-.542 1.089-.362.262-.84.393-1.437.393-.599 0-1.116-.151-1.554-.452-.436-.3-.649-.733-.637-1.298l.007-.022h1.192c0 .304.082.522.246.652.164.13.413.196.746.196.254 0 .443-.051.567-.153a.486.486 0 0 0 .187-.398z"/><path id="upp4r" d="M103.154 1450.67h-1.662l-.298 1.025h-1.232l1.702-5.274h1.316l1.706 5.274h-1.232zm-1.391-.942h1.119l-.551-1.887h-.021z"/><path id="upp4s" d="M109.279 1451.695v-5.274h1.906c.62 0 1.14.202 1.557.607.418.404.627.923.627 1.556v.948c0 .636-.21 1.155-.627 1.558-.417.403-.936.605-1.557.605zm1.229-4.332v3.39h.594c.326 0 .58-.111.764-.335.184-.223.276-.518.276-.886v-.956c0-.364-.092-.658-.276-.88-.183-.222-.438-.333-.764-.333z"/><path id="upp4t" d="M119.674 1449.532c0 .65-.205 1.185-.617 1.607-.412.421-.95.632-1.614.632-.669 0-1.21-.21-1.627-.632-.415-.422-.623-.957-.623-1.607v-.949c0-.647.207-1.182.621-1.605.415-.422.955-.633 1.621-.633.663 0 1.201.211 1.617.633.415.423.622.958.622 1.605zm-1.22-.956c0-.377-.089-.686-.267-.927-.177-.242-.427-.363-.752-.363-.33 0-.584.121-.758.361-.175.24-.263.55-.263.93v.955c0 .382.09.693.267.935.177.241.431.362.762.362.321 0 .57-.12.746-.362.176-.242.265-.553.265-.935z"/><path id="upp4u" d="M128.77 1450.967c-.179.212-.438.399-.778.562-.34.161-.769.242-1.283.242-.652 0-1.18-.2-1.588-.601-.406-.401-.61-.921-.61-1.561v-1.101c0-.636.198-1.155.595-1.558.398-.403.91-.605 1.535-.605.678 0 1.186.157 1.525.471.338.314.53.742.576 1.286l-.007.022h-1.15c-.04-.278-.13-.487-.268-.627-.14-.14-.352-.21-.637-.21a.828.828 0 0 0-.688.338c-.174.226-.26.518-.26.875v1.109c0 .367.085.662.257.885.171.223.411.335.72.335.225 0 .401-.018.53-.054a.836.836 0 0 0 .303-.145v-.833h-.83v-.811h2.058z"/><path id="upp4v" d="M131.932 1449.673v2.022h-1.228v-5.274h2.029c.61 0 1.095.141 1.452.424.357.283.536.67.536 1.16 0 .272-.071.506-.216.702-.143.195-.355.355-.636.478.325.091.557.244.698.458.14.214.212.48.212.798v.334c0 .138.02.294.06.471.043.176.114.301.215.377v.072h-1.26c-.096-.075-.16-.208-.19-.399a3.411 3.411 0 0 1-.045-.528v-.319c0-.25-.067-.444-.2-.576-.132-.133-.327-.2-.583-.2zm0-.94h.808c.247 0 .434-.057.565-.169.13-.113.195-.274.195-.484a.697.697 0 0 0-.201-.52c-.134-.13-.323-.197-.566-.197h-.801z"/><path id="upp4w" d="M141.116 1446.421v3.456c0 .601-.199 1.067-.6 1.398-.399.331-.922.496-1.569.496-.655 0-1.183-.165-1.584-.496-.4-.33-.6-.797-.6-1.398v-3.456h1.227v3.456c0 .323.084.563.25.72.167.155.402.232.707.232.302 0 .533-.077.696-.232.163-.154.245-.394.245-.72v-3.456z"/><path id="upp4x" d="M144.335 1449.888v1.808h-1.228v-5.274h2.141c.626 0 1.122.16 1.489.48.368.319.55.738.55 1.254 0 .52-.182.938-.55 1.256-.367.317-.863.476-1.489.476zm0-.942h.913c.266 0 .468-.073.607-.22a.784.784 0 0 0 .209-.563.814.814 0 0 0-.209-.576c-.139-.15-.341-.225-.607-.225h-.913z"/><path id="upp4y" d="M153.524 1449.532c0 .65-.206 1.185-.617 1.607-.413.421-.95.632-1.614.632-.67 0-1.211-.21-1.627-.632-.415-.422-.623-.957-.623-1.607v-.949c0-.647.207-1.182.62-1.605.415-.422.956-.633 1.622-.633.663 0 1.2.211 1.616.633.416.423.623.958.623 1.605zm-1.22-.956c0-.377-.09-.686-.267-.927-.177-.242-.428-.363-.752-.363-.331 0-.584.121-.758.361-.175.24-.263.55-.263.93v.955c0 .382.089.693.267.935.177.241.43.362.762.362.32 0 .57-.12.746-.362.176-.242.265-.553.265-.935z"/></defs><g><g transform="translate(-41 -1446)"><use fill="#fff" xlink:href="#upp4a"/></g><g transform="translate(-41 -1446)"><use fill="#fff" xlink:href="#upp4b"/></g><g transform="translate(-41 -1446)"><use fill="#fff" xlink:href="#upp4c"/></g><g transform="translate(-41 -1446)"><use fill="#fff" xlink:href="#upp4d"/></g><g transform="translate(-41 -1446)"><use fill="#fff" xlink:href="#upp4e"/></g><g transform="translate(-41 -1446)"><use fill="#fff" xlink:href="#upp4f"/></g><g transform="translate(-41 -1446)"><use fill="#fff" xlink:href="#upp4g"/></g><g transform="translate(-41 -1446)"><use fill="#fff" xlink:href="#upp4h"/></g><g transform="translate(-41 -1446)"><use fill="#fff" xlink:href="#upp4i"/></g><g transform="translate(-41 -1446)"><use fill="#fff" xlink:href="#upp4j"/></g><g transform="translate(-41 -1446)"><use fill="#fff" xlink:href="#upp4k"/></g><g transform="translate(-41 -1446)"><use fill="#fff" xlink:href="#upp4l"/></g><g transform="translate(-41 -1446)"><use fill="#fff" xlink:href="#upp4m"/></g><g transform="translate(-41 -1446)"><use fill="#fff" xlink:href="#upp4n"/></g><g transform="translate(-41 -1446)"><use fill="#fff" xlink:href="#upp4o"/></g><g transform="translate(-41 -1446)"><use fill="#fff" xlink:href="#upp4p"/></g><g transform="translate(-41 -1446)"><use fill="#fff" xlink:href="#upp4q"/></g><g transform="translate(-41 -1446)"><use fill="#fff" xlink:href="#upp4r"/></g><g transform="translate(-41 -1446)"><use fill="#fff" xlink:href="#upp4s"/></g><g transform="translate(-41 -1446)"><use fill="#fff" xlink:href="#upp4t"/></g><g transform="translate(-41 -1446)"><use fill="#fff" xlink:href="#upp4u"/></g><g transform="translate(-41 -1446)"><use fill="#fff" xlink:href="#upp4v"/></g><g transform="translate(-41 -1446)"><use fill="#fff" xlink:href="#upp4w"/></g><g transform="translate(-41 -1446)"><use fill="#fff" xlink:href="#upp4x"/></g><g transform="translate(-41 -1446)"><use fill="#fff" xlink:href="#upp4y"/></g></g></svg>