<svg xmlns="http://www.w3.org/2000/svg" xmlns:xlink="http://www.w3.org/1999/xlink" width="28" height="26" viewBox="0 0 28 26"><defs><path id="qwj4a" d="M789.053 25.098c-.818-.537-1.267-1.294-1.515-1.958 1.332-1.442 2.128-3.278 2.128-5.279 0-4.638-4.29-8.398-9.58-8.398-4.717 0-8.63 2.986-9.427 6.922.46-.056.924-.083 1.394-.083 5.921 0 10.764 4.246 11.001 9.542a10.08 10.08 0 0 0 2.233-.934c1.35.807 2.81.78 3.661.663.243-.027.31-.343.105-.475z"/><path id="qwj4b" d="M772.053 17.933c-5.175 0-9.388 3.738-9.388 8.332 0 1.746.625 3.455 1.764 4.865-.21.387-.498.696-.846.928-.37.243-.548.68-.453 1.112.094.425.443.746.88.807.297.044.606.06.911.06.902 0 1.736-.182 2.477-.536a10.299 10.299 0 0 0 4.655 1.1c5.175 0 9.387-3.737 9.387-8.331 0-4.594-4.212-8.337-9.387-8.337zm0 15.032a8.638 8.638 0 0 1-4.257-1.1l-.415-.238-.409.243c-.42.249-.89.415-1.404.487a4.39 4.39 0 0 0 .575-1.095l.171-.47-.337-.365c-1.106-1.2-1.692-2.642-1.692-4.173 0-3.7 3.483-6.701 7.762-6.701 4.28 0 7.768 3.013 7.768 6.712 0 3.698-3.484 6.7-7.762 6.7z"/><path id="qwj4c" d="M772.318 24.418c.564.005 1.028-.464 1.034-1.04a1.038 1.038 0 0 0-1.028-1.055c-.575 0-1.045.458-1.051 1.039 0 .575.465 1.051 1.045 1.056z"/><path id="qwj4d" d="M773.562 29.134c-.1.039-.193.11-.293.149-.127.05-.254.094-.387.11-.16.017-.276-.066-.315-.22a1.161 1.161 0 0 1-.033-.36c.028-.248.077-.492.122-.741.133-.74.276-1.481.403-2.228.033-.2.072-.403.066-.607-.005-.244-.149-.36-.392-.36h-1.968a1.72 1.72 0 0 0-.238.017c-.15.027-.22.099-.233.215-.01.105.045.21.183.26.11.039.227.05.343.066.265.039.354.133.354.404 0 .044-.006.083-.01.127-.112.652-.234 1.299-.344 1.952-.06.376-.12.746-.17 1.122-.078.547.452 1.067.867 1.122.248.034.503.044.757.039.542-.005.995-.238 1.377-.62a.569.569 0 0 0 .143-.248c.044-.155-.077-.26-.232-.2z"/></defs><g><g transform="translate(-762 -9)"><use fill="#fff" xlink:href="#qwj4a"/></g><g transform="translate(-762 -9)"><use fill="#fff" xlink:href="#qwj4b"/></g><g transform="translate(-762 -9)"><use fill="#fff" xlink:href="#qwj4c"/></g><g transform="translate(-762 -9)"><use fill="#fff" xlink:href="#qwj4d"/></g></g></svg>