<svg xmlns="http://www.w3.org/2000/svg" xmlns:xlink="http://www.w3.org/1999/xlink" width="26" height="26" viewBox="0 0 26 26"><defs><path id="gn92a" d="M1308.314 12.193a.782.782 0 0 1-.57.95l-2.63.657-2.263 14.34v.009l-.003.017c-.009.043-.03.082-.046.123-.016.047-.026.094-.046.135-.026.043-.063.078-.096.117-.029.033-.05.068-.08.094-.04.035-.092.058-.139.084-.033.017-.06.039-.095.053a.755.755 0 0 1-.276.05h-14.669l.392 1.566h15.843a.782.782 0 1 1 0 1.565h-16.455a.796.796 0 0 1-.28-.053c-.03-.013-.055-.03-.084-.047a.825.825 0 0 1-.152-.102c-.025-.026-.05-.052-.072-.08a.787.787 0 0 1-.096-.141c-.018-.036-.035-.07-.048-.108-.008-.021-.02-.04-.027-.062l-.782-3.131-2.352-9.393a.826.826 0 0 1-.012-.32c.005-.028.021-.052.03-.08a.827.827 0 0 1 .088-.214c.003-.006.003-.014.007-.02.02-.027.048-.041.071-.065a.831.831 0 0 1 .142-.136c.04-.025.081-.04.125-.06.04-.016.074-.044.118-.054.02-.005.036 0 .053-.003s.03-.014.043-.015l19.296-2.315.397-2.512a.781.781 0 0 1 .584-.636l3.134-.783a.784.784 0 0 1 .95.57zm-19.684 15.062l-1.178-8.23-2.429.292 1.987 7.938zm3.215 0l-.395-8.708-2.44.293 1.202 8.415zm3.605-9.188l-2.439.292.405 8.896h1.636zm4.005-.48l-2.428.29-.407 9.378h1.623zm3.272-.393l-1.67.2-1.234 9.86h1.561zm-12.412 16.324a1.566 1.566 0 0 1 0 3.131 1.566 1.566 0 1 1 0-3.131zm10.19 0a1.566 1.566 0 1 1 0 3.13 1.566 1.566 0 0 1 0-3.13z"/></defs><g><g transform="translate(-1283 -11)"><use fill="#fff" xlink:href="#gn92a"/></g></g></svg>