<svg data-name="Camada 1" xmlns="http://www.w3.org/2000/svg" viewBox="0 0 37.49 37.46"><g data-name="Menu bar"><g data-name="Meu carrinho"><g data-name="&lt;Grupo&gt;"><path data-name="&lt;Caminho composto&gt;" d="M.89 2.31l3.93 1L8.2 24.76a1.22 1.22 0 0 0 .07.18 1.51 1.51 0 0 0 .07.2 1.54 1.54 0 0 0 .14.18 1.43 1.43 0 0 0 .12.14 1.14 1.14 0 0 0 .21.13l.14.08a1.15 1.15 0 0 0 .41.07H31.3l-.59 2.34H7.02a1.17 1.17 0 1 0 0 2.34h24.61a1.19 1.19 0 0 0 .42-.08l.13-.07a1.21 1.21 0 0 0 .23-.15l.11-.12a1.11 1.11 0 0 0 .14-.21 1 1 0 0 0 .07-.16v-.09l1.17-4.68 3.52-14a1.23 1.23 0 0 0 0-.48 1.09 1.09 0 0 0 0-.12 1.2 1.2 0 0 0-.13-.32 1.19 1.19 0 0 0-.11-.1 1.16 1.16 0 0 0-.21-.2 1.1 1.1 0 0 0-.19-.09 1.05 1.05 0 0 0-.18-.08h-.14L7.61 5.93l-.59-3.76a1.17 1.17 0 0 0-.87-1L1.46 0a1.19 1.19 0 0 0-.57 2.31zm28.58 21.11l1.76-12.31 3.63.44-3 11.87h-2.42zm-4.81 0l.59-13 3.65.44-1.8 12.59h-2.44zM19.27 9.68l3.65.44-.61 13.3h-2.45zm-6-.72l3.63.43.61 14h-2.43zm-4.89-.59l2.5.3 1.9 14.75h-2.33zM24.6 35.12a2.34 2.34 0 1 0 2.34-2.34 2.34 2.34 0 0 0-2.33 2.34zm-15.24 0a2.34 2.34 0 1 0 2.34-2.34 2.34 2.34 0 0 0-2.33 2.34z" fill="#616161"/></g></g></g></svg>