<svg xmlns="http://www.w3.org/2000/svg" xmlns:xlink="http://www.w3.org/1999/xlink" width="15" height="15" viewBox="0 0 15 15"><defs><path id="2ozaa" d="M444 512v-15h15v15z"/><path id="2ozac" d="M457 501.76c0 .19-.07.38-.2.51l-6.1 6.52a.67.67 0 0 1-.48.21.67.67 0 0 1-.49-.21l-3.53-3.77a.76.76 0 0 1 0-1.04l.96-1.03c.13-.13.3-.2.49-.2.17 0 .35.07.48.2l2.09 2.24 4.65-4.98c.13-.13.3-.21.48-.21s.36.08.49.21l.96 1.03c.13.14.2.33.2.52z"/><clipPath id="2ozab"><use fill="#fff" xlink:href="#2ozaa"/></clipPath></defs><g><g transform="translate(-444 -497)"><use fill="#fff" xlink:href="#2ozaa"/><use fill="#fff" fill-opacity="0" stroke="#211e14" stroke-miterlimit="50" stroke-width="2" clip-path="url(&quot;#2ozab&quot;)" xlink:href="#2ozaa"/></g><g transform="translate(-444 -497)"><use fill="#e75300" xlink:href="#2ozac"/></g></g></svg>