<svg xmlns="http://www.w3.org/2000/svg" xmlns:xlink="http://www.w3.org/1999/xlink" width="10" height="10" viewBox="0 0 10 10"><defs><path id="dmqka" d="M1685 451.047c0 .21-.084.421-.236.573l-1.144 1.144a.816.816 0 0 1-1.145 0L1680 450.29l-2.475 2.474a.816.816 0 0 1-1.145 0l-1.144-1.144a.816.816 0 0 1 0-1.145l2.474-2.475-2.474-2.475a.816.816 0 0 1 0-1.145l1.144-1.144a.816.816 0 0 1 1.145 0l2.475 2.474 2.475-2.474a.816.816 0 0 1 1.145 0l1.144 1.144a.816.816 0 0 1 0 1.145L1682.29 448l2.474 2.475a.816.816 0 0 1 .236.572z"/></defs><g><g transform="translate(-1675 -443)"><use fill="#e75300" xlink:href="#dmqka"/></g></g></svg>