<svg xmlns="http://www.w3.org/2000/svg" xmlns:xlink="http://www.w3.org/1999/xlink" width="10" height="10" viewBox="0 0 10 10"><defs><path id="106ta" d="M612 330.05c0 .2-.08.42-.24.57l-1.14 1.14a.82.82 0 0 1-1.15 0L607 329.3l-2.47 2.47a.82.82 0 0 1-1.15 0l-1.14-1.14a.82.82 0 0 1 0-1.15l2.47-2.47-2.47-2.47a.82.82 0 0 1 0-1.15l1.14-1.14a.82.82 0 0 1 1.15 0l2.47 2.47 2.47-2.47a.82.82 0 0 1 1.15 0l1.14 1.14a.82.82 0 0 1 0 1.15L609.3 327l2.47 2.47c.16.16.24.37.24.58z"/></defs><g><g transform="translate(-602 -322)"><use fill="#6a6157" xlink:href="#106ta"/></g></g></svg>