<svg xmlns="http://www.w3.org/2000/svg" xmlns:xlink="http://www.w3.org/1999/xlink" width="29" height="29" viewBox="0 0 29 29"><defs><path id="3q2ta" d="M1146.28 34.141a.623.623 0 0 1-.621-.622c0-4.522-3.68-8.2-8.201-8.2-4.523 0-8.201 3.678-8.201 8.2a.623.623 0 0 1-1.245 0c0-5.208 4.238-9.445 9.446-9.445 5.208 0 9.445 4.237 9.445 9.445a.623.623 0 0 1-.622.622z"/><path id="3q2tb" d="M1137.043 24.643a5.451 5.451 0 0 1-5.444-5.445 5.451 5.451 0 0 1 5.445-5.445 5.451 5.451 0 0 1 5.444 5.445 5.452 5.452 0 0 1-5.445 5.445zm0-9.647a4.207 4.207 0 0 0-4.201 4.202 4.207 4.207 0 0 0 4.201 4.201 4.206 4.206 0 0 0 4.202-4.2 4.207 4.207 0 0 0-4.201-4.203z"/><path id="3q2tc" d="M1137.457 37.586c-3.75 0-7.277-1.46-9.93-4.112a13.953 13.953 0 0 1-4.112-9.93c0-3.75 1.46-7.277 4.112-9.929a13.95 13.95 0 0 1 9.93-4.113 13.95 13.95 0 0 1 9.93 4.113 13.95 13.95 0 0 1 4.113 9.929c0 3.751-1.46 7.277-4.112 9.93a13.953 13.953 0 0 1-9.93 4.112zm0-27.146c-7.226 0-13.104 5.878-13.104 13.104 0 7.226 5.878 13.104 13.104 13.104 7.226 0 13.104-5.878 13.104-13.104 0-7.226-5.877-13.104-13.103-13.104z"/></defs><g><g transform="translate(-1123 -9)"><use fill="#fff" xlink:href="#3q2ta"/></g><g transform="translate(-1123 -9)"><use fill="#fff" xlink:href="#3q2tb"/></g><g transform="translate(-1123 -9)"><use fill="#fff" xlink:href="#3q2tc"/></g></g></svg>