<svg id="Camada_1" data-name="Camada 1" xmlns="http://www.w3.org/2000/svg" viewBox="0 0 31.52 31.68"><defs><style>.cls-1{fill:#004774}</style></defs><g id="BENEFÃCIOS"><g id="Desconto_boleto" data-name="Desconto boleto"><g id="Desconto_na_primeira" data-name="Desconto na primeira"><g id="_Grupo_" data-name="&lt;Grupo&gt;"><path id="_Caminho_composto_" data-name="&lt;Caminho composto&gt;" class="cls-1" d="M81.13 676.86l17.28-17.28a1 1 0 0 0 .28-.68v-6.05a7.43 7.43 0 0 0-7.69-7.39l-5.64.15a1 1 0 0 0-.65.28l-17.26 17.28a1 1 0 0 0 0 1.35l12.33 12.33a1 1 0 0 0 1.35.01zm-11.65-13l16.33-16.33 5.26-.14a5.52 5.52 0 0 1 5.66 5.48v5.65l-16.27 16.31-11-11z" transform="translate(-67.17 -645.46)"/><path id="_Caminho_composto_2" data-name="&lt;Caminho composto&gt;" class="cls-1" d="M92.94 651a2.91 2.91 0 1 0 0 4.11 2.91 2.91 0 0 0 0-4.11zm-1.35 2.76a1 1 0 1 1 0-1.4 1 1 0 0 1-.01 1.36z" transform="translate(-67.17 -645.46)"/></g></g></g></g></svg>