<svg xmlns="http://www.w3.org/2000/svg" xmlns:xlink="http://www.w3.org/1999/xlink" width="23" height="23" viewBox="0 0 23 23"><defs><path id="hkhsa" d="M34.9 32.6l12.42-12.42c.13-.13.2-.3.2-.49l-.02-4.35a5.3 5.3 0 0 0-5.49-5.3l-4.05.1a.68.68 0 0 0-.47.2L25.07 22.78a.69.69 0 0 0 0 .97l8.86 8.86c.27.27.7.27.97 0zm-8.37-9.35l11.74-11.73 3.78-.1a3.94 3.94 0 0 1 4.07 3.93l.03 4.06-11.73 11.73z"/><path id="hkhsb" d="M43.39 13.99a2.1 2.1 0 1 0-2.96 2.96 2.1 2.1 0 0 0 2.96-2.96zm-.98 1.98a.71.71 0 1 1-1-1.01.71.71 0 0 1 1 1.01z"/></defs><g><g transform="translate(-25 -10)"><use fill="#fff" xlink:href="#hkhsa"/></g><g transform="translate(-25 -10)"><use fill="#fff" xlink:href="#hkhsb"/></g></g></svg>