<svg xmlns="http://www.w3.org/2000/svg" xmlns:xlink="http://www.w3.org/1999/xlink" width="23" height="23" viewBox="0 0 23 23"><defs><path id="h51ga" d="M34.904 32.6l12.42-12.42a.687.687 0 0 0 .2-.492l-.026-4.35a5.3 5.3 0 0 0-1.628-3.805 5.297 5.297 0 0 0-3.858-1.5l-4.056.11a.681.681 0 0 0-.468.201l-12.42 12.42a.689.689 0 0 0 0 .973L33.93 32.6c.27.27.705.27.974 0zm-8.376-9.35l11.739-11.739 3.782-.102a3.936 3.936 0 0 1 2.864 1.113 3.938 3.938 0 0 1 1.208 2.825l.026 4.062-11.73 11.73z"/></defs><g><g transform="translate(-25 -10)"><use fill="#fff" xlink:href="#h51ga"/></g></g></svg>