<svg version="1.1" id="Camada_1" xmlns="http://www.w3.org/2000/svg" xmlns:xlink="http://www.w3.org/1999/xlink" x="0px" y="0px" viewBox="0 0 828 422" style="margin: 0;width: 120px;enable-background:new 0 0 828 422;height: 60px;" xml:space="preserve">
                                    <style type="text/css">
                                        .st00{fill:#8628B9;}
                                        .st01{fill:#752994;}
                                        .st02{fill:#FFD000;}
                                        .st03{fill:#FBB400;}
                                        .st04{fill:#FFFFFF;}
                                        .st05{fill:#4A1473;}
                                        .st06{fill:#B6B6B6;stroke:#B6B6B6;stroke-width:0.5;stroke-miterlimit:10;}
                                        .st07{fill:#B6B6B6;stroke:#B6B6B6;stroke-miterlimit:10;}
                                    </style>
                                    <path class="st00" d="M349.2,207.9c0,5.9-0.4,11.8-1.1,17.5c-8.4,63.1-62.4,111.8-127.8,111.9C148.9,337.6,91,279.8,90.8,208.5              c0-2.9,0.1-5.7,0.3-8.6C95.3,132.5,151.2,79.2,219.7,79C291.1,78.9,349,136.6,349.2,207.9z"></path>
                                    <path class="st01" d="M222.2,206.4l-0.3-126l0.2-1.4c-0.8,0-1.6,0-2.4,0c-68.5,0.1-124.4,53.5-128.7,120.9c-0.2,2.8-0.3,5.7-0.3,8.6              c0,5.8,0.4,11.5,1.2,17.1L222.2,206.4z"></path>
                                    <path class="st02" d="M312.6,209.7c0.1,52.5-42.4,95.2-95,95.3s-95.2-42.4-95.4-94.9s45.2-93.1,95-95.3              C269.7,112.4,312.4,157.1,312.6,209.7z"></path>
                                    <path class="st03" d="M186.9,178.5l78,22.8l46-8.9c-8.2-44.7-47.1-79.7-93.8-77.6c-23.7,1-46.4,10.8-63.6,26.4L186.9,178.5z"></path>
                                    <path class="st3" d="M309.3,193"></path>
                                    <circle class="st04" cx="217.4" cy="209.9" r="50"></circle>
                                    <g>

                                            <rect x="236.5" y="132.4" transform="matrix(0.172 0.9851 -0.9851 0.172 400.4695 -64.4251)" class="st5" width="4.2" height="147.3"></rect>
                                    </g>
                                    <path class="st05" d="M265.2,213.2c-1.3,19.3-14.3,36.6-33.9,42.6c-25.3,7.7-52.1-6.6-59.8-31.9s6.6-52.1,31.9-59.8              c24.7-7.5,50.9,6,59.3,30.2l4-1.3c-9-26.4-37.5-41.1-64.5-33c-27.5,8.4-43.1,37.5-34.7,65c8.4,27.5,37.5,43,65,34.7              c21.8-6.6,36.1-26.3,36.9-47.9L265.2,213.2z"></path>
                                    <path class="st04" d="M291.2,145.1c-30.4-34.9-80.3-42.9-119.5-21.9l3.3,3c37.2-19.1,84.4-11.3,113.1,21.6              c33.7,38.8,29.6,97.7-9.2,131.4s-97.7,29.6-131.4-9.2c-28-32.2-29.9-78.2-7.5-112.2l-3.2-2.7c-23.6,35.6-21.7,83.9,7.6,117.7              c35.2,40.5,96.8,44.8,137.3,9.6S326.4,185.6,291.2,145.1z"></path>
                                    <g>
                                        <path class="st06" d="M440.1,245.6c0.8-0.8,1.6-0.8,2.4-0.1c0.8,0.8,0.8,1.6,0.1,2.4c-2.3,2.1-4.9,3.8-8,5.1c-3.1,1.3-6.3,2-9.7,2                  c-3.6,0-6.9-0.7-10-2c-3.1-1.3-5.9-3.2-8.2-5.5c-2.3-2.3-4.2-5.1-5.6-8.2c-1.4-3.1-2-6.5-2-10c0-3.5,0.7-6.9,2-10.1                  c1.3-3.2,3.2-5.9,5.5-8.3c2.3-2.3,5.1-4.2,8.2-5.6c3.1-1.4,6.5-2,10-2c3.5,0,6.8,0.7,9.9,2c3.1,1.3,5.9,3.2,8.2,5.5                  c2.3,2.3,4.2,5,5.6,8.1c1.4,3.1,2.1,6.4,2.2,9.9l0,0.2l0,0.1c-0.1,1.1-0.7,1.6-1.7,1.6l-46.5,0.1c0.2,2.9,1,5.6,2.2,8.1                  c1.2,2.5,2.9,4.7,4.9,6.5c2,1.8,4.4,3.3,7,4.4c2.6,1.1,5.4,1.6,8.3,1.6c3,0,5.8-0.5,8.3-1.6C435.8,248.9,438.1,247.5,440.1,245.6z                   M424.8,206.8c-2.9,0-5.7,0.6-8.3,1.7c-2.6,1.1-4.9,2.6-6.9,4.4c-2,1.9-3.6,4-4.9,6.6c-1.3,2.5-2,5.2-2.2,8l44.7-0.1                  c-0.2-2.8-1-5.5-2.3-8c-1.3-2.5-2.9-4.7-5-6.5c-2-1.8-4.3-3.3-6.9-4.4C430.5,207.3,427.7,206.8,424.8,206.8z"></path>
                                        <path class="st07" d="M532,184.6c-3.4-2.9-7.4-5.6-11.9-7.9c-4.6-2.4-9.4-3.5-14.6-3.5c-5,0-9.8,1-14.2,2.9                  c-4.4,1.9-8.3,4.5-11.6,7.8c-3.3,3.3-5.8,7.2-7.7,11.7c-1.9,4.5-2.8,9.2-2.8,14.2c0,5,1,9.7,2.9,14.2c1.9,4.4,4.5,8.3,7.8,11.6                  s7.1,5.8,11.6,7.7c4.5,1.9,9.2,2.8,14.2,2.8c5.3,0,10.2-1,14.8-3.1c4.6-2,8.5-4.9,11.8-8.5c0.5-0.6,1.1-1,1.8-1.3                  c0.7-0.3,1.4-0.4,2.2-0.4c1.2,0,2.2,0.4,2.8,1.3c0.6,0.8,0.9,1.8,0.9,2.8c0,1.5-0.4,2.7-1.3,3.6c-4.2,4.6-9.1,8.1-14.7,10.6                  c-5.7,2.5-11.8,3.8-18.3,3.8c-6.2,0-12.1-1.2-17.6-3.5c-5.5-2.4-10.3-5.6-14.4-9.6c-4.1-4.1-7.3-8.8-9.7-14.3                  c-2.4-5.5-3.6-11.4-3.6-17.6c0-6.2,1.2-12.1,3.5-17.6c2.4-5.5,5.6-10.3,9.6-14.4c4.1-4.1,8.8-7.4,14.3-9.8                  c5.5-2.4,11.4-3.6,17.6-3.6c6.3,0,12.3,1.2,17.8,3.7c5.5,2.5,10.4,5.8,14.6,10.1c0.5,0.5,0.9,1.1,1.3,1.8c0.4,0.8,0.6,1.5,0.6,2.3                  c0,1.2-0.4,2.2-1.3,2.8c-0.9,0.7-1.8,1-3,1C534,186,532.9,185.6,532,184.6z"></path>
                                        <path class="st07" d="M579,186c4.5,0,8.9,0.9,13,2.7c4.1,1.8,7.7,4.3,10.9,7.4c3.1,3.1,5.6,6.8,7.5,10.9c1.9,4.2,2.8,8.6,2.8,13.3                  c0,4.6-0.9,9-2.7,13.1c-1.8,4.1-4.2,7.7-7.3,10.9c-3.1,3.1-6.7,5.6-10.8,7.4c-4.2,1.8-8.7,2.7-13.5,2.7c-4.7,0-9.2-0.8-13.3-2.5                  c-4.1-1.7-7.7-4.1-10.9-7.1c-3.1-3-5.6-6.6-7.4-10.8c-1.8-4.2-2.7-8.7-2.7-13.6c0-4.7,0.9-9.2,2.6-13.3c1.7-4.1,4.1-7.7,7.2-10.8                  s6.7-5.6,10.9-7.4C569.6,187.2,574.1,186.2,579,186z M578.8,194.9c-3.5,0-6.8,0.7-9.9,2c-3.1,1.3-5.8,3.2-8.1,5.5                  c-2.3,2.3-4.1,5-5.5,8.2c-1.3,3.1-2,6.4-2,9.9c0,3.5,0.7,6.8,2,9.9c1.3,3.1,3.2,5.8,5.5,8.1c2.3,2.3,5,4.1,8.1,5.5                  c3.1,1.3,6.4,2,9.9,2c3.5,0,6.8-0.7,9.9-2c3.1-1.3,5.8-3.2,8.2-5.5c2.3-2.3,4.1-5,5.5-8.1c1.3-3.1,2-6.4,2-9.9c0-3.5-0.7-6.8-2-9.9                  c-1.3-3.1-3.2-5.8-5.5-8.2c-2.3-2.3-5-4.1-8.2-5.5C585.6,195.6,582.3,194.9,578.8,194.9z"></path>
                                        <path class="st07" d="M623.6,190c0-1.2,0.4-2.3,1.3-3.1c0.8-0.9,1.9-1.3,3.1-1.3c1.2,0,2.3,0.4,3.1,1.3c0.9,0.9,1.3,1.9,1.3,3.1l0,7                  c3-3.3,6.7-6,10.9-8.2c4.3-2.1,8.9-3.2,13.9-3.2c1.5,0,2.7,0.4,3.6,1.3c0.9,0.9,1.4,1.9,1.4,3.1c0,1.2-0.4,2.3-1.3,3.1                  c-0.9,0.9-2.1,1.3-3.6,1.3c-3.4,0-6.6,0.7-9.5,2c-2.9,1.3-5.5,3.1-7.7,5.4c-2.2,2.3-4,4.9-5.4,7.8c-1.4,2.9-2.1,6-2.2,9.2l0.1,31.4                  c0,1.2-0.4,2.3-1.3,3.1c-0.8,0.9-1.9,1.3-3.1,1.3c-1.2,0-2.3-0.4-3.1-1.3c-0.9-0.8-1.3-1.9-1.3-3.1L623.6,190z"></path>
                                        <path class="st07" d="M671.6,224.4c0.5,3,1.5,5.8,3,8.4c1.5,2.6,3.4,4.8,5.6,6.7c2.2,1.9,4.8,3.4,7.6,4.5c2.8,1.1,5.8,1.6,9,1.6                  c3.5,0,6.8-0.7,9.8-1.9c3-1.3,5.7-3.1,8.1-5.3c0.8-0.9,1.9-1.3,3.1-1.3s2.3,0.4,3.1,1.3c0.9,0.9,1.3,1.9,1.3,3.1s-0.4,2.3-1.3,3.1                  c-3.1,3.5-6.6,6-10.6,7.5s-8.4,2.2-13.6,2.2c-4.7,0-9.2-0.8-13.3-2.5c-4.1-1.7-7.7-4.1-10.9-7.1c-3.1-3-5.6-6.6-7.4-10.8                  c-1.8-4.2-2.7-8.7-2.7-13.6c0-4.7,0.9-9.2,2.6-13.3c1.7-4.1,4.1-7.7,7.2-10.8c3.1-3.1,6.7-5.6,10.9-7.4c4.2-1.9,8.8-2.9,13.7-3.1                  c4.4,0,8.7,0.9,12.9,2.7c4.1,1.8,7.7,4.2,10.9,7.4c3.1,3.1,5.6,6.7,7.5,10.8c1.9,4.1,2.9,8.5,2.9,13.3c0,1.4-0.5,2.5-1.4,3.3                  c-0.9,0.8-1.9,1.1-3,1.1L671.6,224.4z M721.8,215.5c-0.6-2.9-1.6-5.7-3.1-8.2c-1.5-2.6-3.4-4.8-5.6-6.6c-2.2-1.8-4.7-3.3-7.5-4.4                  c-2.8-1.1-5.8-1.6-8.9-1.6c-3.1,0-6.1,0.6-8.9,1.7c-2.8,1.1-5.3,2.6-7.5,4.4c-2.2,1.9-4.1,4.1-5.5,6.6c-1.5,2.6-2.5,5.3-3,8.2                  L721.8,215.5z"></path>
                                    </g>
                                </svg>