<svg xmlns="http://www.w3.org/2000/svg" xmlns:xlink="http://www.w3.org/1999/xlink" width="47" height="47" viewBox="0 0 47 47"><defs><path id="6kb9a" d="M1173.308 1356.619a22.855 22.855 0 1 1-43.473 14.126 22.855 22.855 0 0 1 43.473-14.126zm-21.736-13.732a20.794 20.794 0 0 0-19.777 14.369 20.793 20.793 0 0 0 7.554 23.25 20.791 20.791 0 0 0 24.447 0 20.794 20.794 0 0 0-12.224-37.62z"/><path id="6kb9b" d="M1154.679 1357.113c.62-.022 1.239-.006 1.86-.006h.257v-3.226c-.331-.032-.678-.081-1.024-.097-.636-.028-1.273-.06-1.91-.045-.971.021-1.891.257-2.694.832-.921.663-1.426 1.594-1.62 2.692-.08.453-.1.924-.111 1.384-.018.724-.003 1.446-.002 2.171v.272h-3.086v3.602h3.067v9.054h3.748v-9.039h3.059l.47-3.619c-.246 0-.466-.002-.687 0-.87.004-2.865 0-2.865 0s.008-1.786.029-2.56c.03-1.061.659-1.385 1.509-1.415z"/></defs><g><g transform="translate(-1128 -1340)"><use fill="#80754e" xlink:href="#6kb9a"/></g><g transform="translate(-1128 -1340)"><use fill="#80754e" xlink:href="#6kb9b"/></g></g></svg>