<svg xmlns="http://www.w3.org/2000/svg" xmlns:xlink="http://www.w3.org/1999/xlink" width="21" height="21" viewBox="0 0 21 21"><defs><path id="7ks5a" d="M64.063 285A3.939 3.939 0 0 1 68 288.938v13.125A3.939 3.939 0 0 1 64.062 306h-2.57v-8.135h2.72l.411-3.172h-3.13v-2.023c0-.916.245-1.531 1.571-1.531l1.668-.014v-2.83c-.287-.041-1.285-.123-2.433-.123-2.42 0-4.088 1.476-4.088 4.183v2.338h-2.734v3.172h2.734V306h-7.273A3.939 3.939 0 0 1 47 302.062v-13.125A3.939 3.939 0 0 1 50.938 285z"/></defs><g><g transform="translate(-47 -285)"><use fill="#fff" xlink:href="#7ks5a"/></g></g></svg>