<svg xmlns="http://www.w3.org/2000/svg" xmlns:xlink="http://www.w3.org/1999/xlink" width="133" height="70" viewBox="0 0 133 70"><defs><path id="p5ina" d="M1238 2654h126.97v-18.45H1238z"/><path id="p5inb" d="M1355.7 2646.77l-2.75-8.11h2.4l1.54 5.49 1.64-5.49h2.2l-2.78 8.11v3.58h-2.24zm-6.62 1.73l.54-.56v-6.86l-.54-.56h-2v7.98zm-4.26-9.84h5.57l1.47 1.54v8.6l-1.47 1.55h-5.57zm-6.39 7.16h1.98l-.99-5.86zm-.6-7.16h3.3l2.26 11.69h-2.22l-.45-2.68h-2.6l-.46 2.68h-2.1zm-9.35 0h5.93v1.95h-3.67v2.83h3.33v1.95h-3.33v3.01h3.7v1.95h-5.96zm-4.6 5.24l.52-.54v-2.43l-.5-.52h-2.15v3.5zm-4.4-5.24h5.73l1.43 1.5v3.92l-1.22 1.27 1.4 5h-2.3l-1.24-4.7h-1.53v4.7h-2.26zm-11.44 0h5.94v1.95h-3.67v2.83h3.33v1.95h-3.33v3.01h3.7v1.95h-5.97zm-4.73 4.81l.54-.56v-1.96l-.49-.51h-2.08v3.03zm.07 5.08l.47-.49v-2.25l-.54-.56h-2.03v3.3zm-4.34-9.89h5.65l1.42 1.47v3l-1.17 1.22 1.17 1.22v3.3l-1.42 1.48h-5.65zm-12.57 10.2v-2h2.26v1.15l.47.5h1.56l.48-.5v-2.17l-.36-.39h-3.12l-1.24-1.27v-4.01l1.45-1.51h4.06l1.43 1.5v1.99h-2.26V2641l-.47-.5h-1.48l-.47.5v2.08l.36.38h3.12l1.22 1.28v4.1l-1.45 1.5h-4.13zm-6.08-2.09l-2.76-8.11h2.4l1.55 5.49 1.64-5.49h2.2l-2.78 8.11v3.58h-2.25zm-7.72-.95h1.98l-.99-5.86zm-.6-7.16h3.3l2.26 11.69h-2.22l-.46-2.68h-2.6l-.45 2.68h-2.1zm-14.26 0h2.13l.96 9.37 1.28-9.37h2.93l1.3 9.37.96-9.37h1.87l-1.56 11.69h-2.8l-1.33-9.42-1.32 9.42h-2.84zm-6.08 0h2.26v9.7h3.17v1.99h-5.43zm-6.39 7.16h1.98l-.99-5.86zm-.6-7.16h3.32l2.26 11.69h-2.23l-.46-2.68h-2.6l-.45 2.68h-2.1z"/><path id="p5inc" d="M1360.04 2649.33c0-.5.39-.9.87-.9.47 0 .86.4.86.9s-.39.9-.86.9a.88.88 0 0 1-.87-.9zm.1 0c0 .45.34.8.76.8s.75-.35.75-.8c0-.43-.33-.79-.75-.79a.78.78 0 0 0-.75.8zm1 .48l-.17-.3c-.03-.06-.06-.11-.13-.11h-.11v.41h-.12v-.96h.33c.18 0 .3.08.3.28 0 .13-.08.26-.21.26l.04.05.22.37zm-.41-.84v.32h.2c.12 0 .2-.03.2-.16s-.08-.16-.2-.16z"/><path id="p5ind" d="M1274.01 2614.87h-7.85v7.97h.01l-.02.02h7.88v-8z"/><path id="p5ine" d="M1300.31 2584v7.53h5.7v-.01 23.81H1299.93v7.52l.03-.01h19.06l.04.02h.01v-7.53h-6.06v-31.3l.02-.03h-12.7z"/><path id="p5inf" d="M1277.8 2584h-.01v7.53h5.7v-.01 23.81h-6.08v7.52l.03-.01h19.06l.03.02h.02v-7.53h-6.06v-31.3l.02-.03h-12.7z"/><path id="p5ing" d="M1239.24 2606.45s3.92-1.2 7.88-1.33c1.65-.05 3.3.08 4.68.56.67.23 1.28.55 1.8.97.54.45.98 1.01 1.28 1.72.23.59.37 1.27.38 2.06v.11c0 .84-.1 1.56-.31 2.18a4.35 4.35 0 0 1-2.8 2.82 8.8 8.8 0 0 1-2.8.49c-1.87.05-3.93-.3-5.78-.77-3.08-.77-5.55-1.85-5.55-1.85l-.02.5.02 8s1.95.68 4.8 1.27a38.93 38.93 0 0 0 7.62.82c2.09 0 4-.39 5.7-1.08 1.4-.57 2.64-1.34 3.7-2.28a11.93 11.93 0 0 0 4.06-9.1c0-.43-.02-.84-.05-1.24-.13-1.9-.55-3.6-1.24-5.06a10.79 10.79 0 0 0-7.44-6 15.27 15.27 0 0 0-4.39-.4l-.37.03c-3.55.25-3.98.25-4.02.24v-6.58h15.92v-7.39h-.02l-.03.02h-23v21.27z"/><path id="p5inh" d="M1362.65 2615.93c0 2.93-2.34 5.3-5.23 5.3h-22.39a5.26 5.26 0 0 1-5.22-5.3h-.01v-22.72h.01c0-2.92 2.34-5.3 5.22-5.3v-.01h22.4v.01a5.26 5.26 0 0 1 5.22 5.3v22.72zm-35.57 8.07h38.29v-38.86h-38.29z"/><path id="p5ini" d="M1356.67 2611.8a3.34 3.34 0 0 1-3.32 3.36h-14.23a3.34 3.34 0 0 1-3.31-3.37h-.03v-14.42h.03a3.34 3.34 0 0 1 3.31-3.37v-.02h14.23v.02c1.83 0 3.32 1.5 3.32 3.37v14.42zm-22.83 5.34h24.77V2592h-24.77z"/><path id="p5inj" d="M1368.95 2585.51v-.52h.38c.24 0 .31.08.31.23 0 .16-.07.29-.36.3zm.27.32c.1 0 .21 0 .29.08.09.1.09.26.11.43l.07.37h.4c-.07-.19-.1-.4-.12-.6-.03-.21-.06-.34-.34-.39.27-.06.4-.25.4-.48 0-.46-.37-.56-.74-.56h-.65v2.03h.32v-.88zm1.48-.12a1.4 1.4 0 0 1-1.39 1.42 1.4 1.4 0 0 1-1.4-1.42c0-.77.63-1.4 1.4-1.4.77 0 1.4.63 1.4 1.4zm-3.08 0c0 .95.75 1.72 1.7 1.72a1.7 1.7 0 0 0 1.68-1.72 1.7 1.7 0 0 0-1.69-1.71c-.94 0-1.69.77-1.69 1.71z"/><path id="p5ink" d="M1352.99 2603.1h-5.3v-5.39h-1.78v5.38h-5.31v1.8h5.3v5.4h1.78v-5.4h5.3z"/></defs><g><g transform="translate(-1238 -2584)"><g><g><use fill="#e75300" xlink:href="#p5ina"/></g><g><use fill="#211e14" xlink:href="#p5inb"/></g><g><use xlink:href="#p5inc"/></g></g><g><g><use fill="#fff" xlink:href="#p5ind"/></g><g><use fill="#fff" xlink:href="#p5ine"/></g><g><use fill="#fff" xlink:href="#p5inf"/></g><g><use fill="#fff" xlink:href="#p5ing"/></g><g><use fill="#e75300" xlink:href="#p5inh"/></g><g><use fill="#e75300" xlink:href="#p5ini"/></g><g><use fill="#e75300" xlink:href="#p5inj"/></g><g><use fill="#e75300" xlink:href="#p5ink"/></g></g></g></g></svg>