<svg xmlns="http://www.w3.org/2000/svg" xmlns:xlink="http://www.w3.org/1999/xlink" width="38" height="22" viewBox="0 0 38 22"><defs><path id="11rpa" d="M563.718 26.184c1.75 0 3.165 1.42 3.165 3.17a3.165 3.165 0 1 1-6.33 0c0-1.75 1.415-3.17 3.165-3.17zm0 4.753c.875 0 1.582-.713 1.583-1.583 0-.875-.708-1.582-1.583-1.582a1.58 1.58 0 0 0-1.582 1.582c0 .87.707 1.583 1.582 1.583zm23.87-7.094v3.38c0 .843-.684 1.526-1.527 1.526h-1.633a4.193 4.193 0 0 0-4.147-3.582 4.191 4.191 0 0 0-4.141 3.582h-8.28a4.192 4.192 0 0 0-4.141-3.582 4.192 4.192 0 0 0-4.142 3.582h-2.046a1.526 1.526 0 0 1-1.526-1.527v-3.379zm-7.303 2.341a3.168 3.168 0 1 1-3.17 3.17c0-1.75 1.42-3.17 3.17-3.17zm0 4.753c.87 0 1.583-.713 1.583-1.583 0-.875-.713-1.582-1.583-1.582a1.58 1.58 0 0 0-1.582 1.582c0 .87.707 1.583 1.582 1.583zm6.7-10.497c.383.382.602.9.602 1.445V23h-31.583V20l-6.337-1.195 11.08-.96-11.08-1.576 11.119-1.105-10.977-1.429 6.195-.714v-.239c0-.845.687-1.526 1.526-1.526h17.474c.845 0 1.526.681 1.526 1.526v1.135h3.028c.534 0 1.047.213 1.429.59zm-2.614.198c.214 0 .32-.264.163-.412l-4.696-4.483a.259.259 0 0 0-.168-.066h-1.105a.24.24 0 0 0-.24.24v4.482c0 .133.109.24.24.24z"/></defs><g><g transform="translate(-550 -11)"><use fill="#fff" xlink:href="#11rpa"/></g></g></svg>