<svg id="Camada_1" data-name="Camada 1" xmlns="http://www.w3.org/2000/svg" viewBox="0 0 27.23 25.35"><defs><style>.cls-1{fill:#004774}</style></defs><g id="TIP_-_ATENDIMENTO" data-name="TIP - ATENDIMENTO"><g id="fixo"><path class="cls-1" d="M548.14 23.51a4 4 0 0 1-1.53-2 7.81 7.81 0 0 0 2.15-5.32c0-4.68-4.33-8.47-9.66-8.47-4.76 0-8.7 3-9.51 7a11.73 11.73 0 0 1 1.4-.08c6 0 10.85 4.28 11.09 9.62a10.22 10.22 0 0 0 2.25-.94A5.73 5.73 0 0 0 548 24a.26.26 0 0 0 .14-.49z" transform="translate(-521.53 -7.74)"/><path class="cls-1" d="M531 16.28c-5.22 0-9.47 3.77-9.47 8.4a7.82 7.82 0 0 0 1.78 4.91 2.61 2.61 0 0 1-.85.94 1.06 1.06 0 0 0 .43 1.93 6.32 6.32 0 0 0 .92.06 5.75 5.75 0 0 0 2.5-.54 10.39 10.39 0 0 0 4.69 1.11c5.22 0 9.47-3.77 9.47-8.4s-4.26-8.41-9.47-8.41zm0 15.16a8.71 8.71 0 0 1-4.29-1.11l-.42-.24-.41.25a3.79 3.79 0 0 1-1.42.49 4.43 4.43 0 0 0 .58-1.1l.17-.47-.34-.37a6.15 6.15 0 0 1-1.71-4.21c0-3.73 3.51-6.76 7.83-6.76s7.83 3 7.83 6.77-3.51 6.75-7.82 6.75z" transform="translate(-521.53 -7.74)"/><path class="cls-1" d="M531.26 22.82a1.06 1.06 0 1 0-1.05-1.06 1.07 1.07 0 0 0 1.05 1.06zm1.26 4.76c-.1 0-.2.11-.3.15a1.64 1.64 0 0 1-.39.11.28.28 0 0 1-.32-.22 1.14 1.14 0 0 1 0-.36c0-.25.08-.5.12-.75.13-.75.28-1.49.41-2.25a3.23 3.23 0 0 0 .07-.61.34.34 0 0 0-.4-.36h-2.24a.24.24 0 0 0-.23.22.25.25 0 0 0 .18.26 1.8 1.8 0 0 0 .35.07.34.34 0 0 1 .36.41 1 1 0 0 1 0 .13c-.11.66-.23 1.31-.35 2-.06.38-.12.75-.17 1.13a1.11 1.11 0 0 0 .88 1.13 5 5 0 0 0 .76 0 2 2 0 0 0 1.39-.62.57.57 0 0 0 .14-.25.16.16 0 0 0-.26-.19z" transform="translate(-521.53 -7.74)"/></g></g></svg>