<svg xmlns="http://www.w3.org/2000/svg" width="25.992" height="25.991"><path d="M6.227 11.804c2.134 0 3.449-.313 3.949-.941.499-.626.749-2.282.749-4.965 0-2.679-.25-4.331-.749-4.958C9.676.313 8.361 0 6.227 0 4.094 0 2.778.313 2.279.94c-.5.627-.749 2.279-.749 4.958 0 2.678.249 4.331.749 4.961.499.629 1.816.945 3.948.945zM3.725 4.381c0-1.083.135-1.77.404-2.06.27-.289.912-.434 1.928-.434 1.339 0 2.122.168 2.349.502.228.335.341 1.48.341 3.438 0 1.94-.119 3.106-.357 3.498-.239.392-.952.587-2.138.587-1.14 0-1.847-.139-2.119-.417-.27-.278-.407-1.004-.407-2.179l-.018-1.413.017-1.522zm20.639 10.745c-.5-.627-1.815-.938-3.949-.938-2.133 0-3.448.312-3.948.938s-.748 2.279-.748 4.959c0 2.679.248 4.33.748 4.961.5.63 1.815.945 3.948.945 2.134 0 3.449-.313 3.949-.94.499-.627.749-2.283.749-4.966 0-2.68-.25-4.332-.749-4.959zm-1.787 8.39c-.238.393-.951.586-2.138.586-1.139 0-1.846-.14-2.118-.416-.271-.277-.408-1.004-.408-2.181l-.017-1.411.017-1.523c0-1.082.135-1.77.403-2.061.271-.289.912-.435 1.929-.435 1.339 0 2.122.168 2.349.502.229.336.342 1.479.342 3.438-.003 1.941-.122 3.107-.359 3.501zM21.863 6.15L3.045 24.967.878 22.801 19.696 3.983l-2.632-2.632h7.432v7.432L21.863 6.15z"/></svg>