<svg xmlns="http://www.w3.org/2000/svg" viewBox="0 0 30 30"><path d="M22.8 3.5H6.5c-2 0-3.7 1.7-3.7 3.7v16.3c0 2.1 1.7 3.7 3.7 3.7h16.3c2.1 0 3.7-1.7 3.7-3.7V7.2c0-2.1-1.6-3.7-3.7-3.7zm-3.1 3.3c0-.4.3-.7.7-.7h2.9c.4 0 .7.3.7.7v2.9c0 .4-.3.7-.7.7h-2.9c-.4 0-.7-.3-.7-.7V6.8zm-9.4 6.8c.7-1.7 2.4-3 4.4-3 2 0 3.7 1.2 4.4 3 .2.5.3 1.1.3 1.7 0 2.6-2.1 4.7-4.7 4.7S10 17.9 10 15.3c-.1-.6.1-1.1.3-1.7zM24 23.5c0 .7-.5 1.2-1.2 1.2H6.5c-.7 0-1.2-.5-1.2-1.2v-9.9h2.3c-.1.5-.2 1.1-.2 1.7 0 4 3.2 7.2 7.2 7.2s7.2-3.2 7.2-7.2c0-.6-.1-1.2-.2-1.7H24v9.9z" fill-rule="evenodd" clip-rule="evenodd" fill="#fff"/></svg>