<svg xmlns="http://www.w3.org/2000/svg" xmlns:xlink="http://www.w3.org/1999/xlink" width="30" height="25" viewBox="0 0 30 25"><defs><path id="z0zja" d="M1042 2625.97a13.41 13.41 0 0 1-3.08 3.26c.02.27.02.55.02.82 0 8.34-6.2 17.95-17.5 17.95-3.48 0-6.72-1.04-9.44-2.83a12.4 12.4 0 0 0 9.12-2.62 6.18 6.18 0 0 1-5.75-4.37c.38.05.76.1 1.16.1.55 0 1.1-.08 1.62-.22a6.27 6.27 0 0 1-4.93-6.2v-.07c.82.47 1.77.76 2.78.8a6.35 6.35 0 0 1-2.74-5.25c0-1.18.3-2.25.83-3.19a17.33 17.33 0 0 0 12.68 6.6 7.3 7.3 0 0 1-.15-1.44c0-3.48 2.74-6.31 6.15-6.31 1.77 0 3.37.76 4.49 2 1.39-.28 2.72-.8 3.9-1.53a6.26 6.26 0 0 1-2.7 3.48c1.24-.14 2.44-.5 3.54-.98z"/></defs><g><g transform="translate(-1012 -2623)"><use fill="#6a6157" xlink:href="#z0zja"/></g></g></svg>