<svg xmlns="http://www.w3.org/2000/svg" xmlns:xlink="http://www.w3.org/1999/xlink" width="30" height="30" viewBox="0 0 30 30"><defs><path id="tmyja" d="M988.6 2628.91c0 .38-.13.7-.39.96s-.58.39-.96.39h-3.4c-.37 0-.7-.13-.95-.4a1.3 1.3 0 0 1-.4-.95v-3.22c0-.37.14-.68.4-.95.26-.27.58-.4.96-.4h3.4c.37 0 .7.13.95.4.26.27.4.58.4.95zm0 17.43c0 .34-.12.62-.35.85-.23.23-.51.34-.84.34h-20.88c-.34 0-.62-.11-.85-.34a1.15 1.15 0 0 1-.34-.85v-12.64h2.75a8.4 8.4 0 0 0-.39 2.55c0 2.5.91 4.63 2.74 6.4a9.13 9.13 0 0 0 6.58 2.64 9.4 9.4 0 0 0 8.09-4.5 8.64 8.64 0 0 0 .86-7.1h2.63zm-15.83-14.53a5.9 5.9 0 0 1 4.25-1.7c1.67 0 3.09.56 4.27 1.7a5.54 5.54 0 0 1 1.76 4.13c0 1.62-.58 3-1.76 4.13a5.9 5.9 0 0 1-4.27 1.71 5.9 5.9 0 0 1-4.25-1.7 5.54 5.54 0 0 1-1.77-4.14c0-1.61.6-2.99 1.77-4.13zm18.1-9.68a3.7 3.7 0 0 0-2.72-1.13h-22.3a3.7 3.7 0 0 0-2.72 1.13 3.7 3.7 0 0 0-1.13 2.72v22.3a3.7 3.7 0 0 0 1.13 2.72 3.7 3.7 0 0 0 2.72 1.13h22.3a3.7 3.7 0 0 0 2.72-1.13 3.7 3.7 0 0 0 1.13-2.72v-22.3a3.7 3.7 0 0 0-1.13-2.72z"/></defs><g><g transform="translate(-962 -2621)"><use fill="#6a6157" xlink:href="#tmyja"/></g></g></svg>