<svg xmlns="http://www.w3.org/2000/svg" xmlns:xlink="http://www.w3.org/1999/xlink" width="30" height="30" viewBox="0 0 30 30"><defs><path id="53tda" d="M1090.34 2621c.92 0 1.66.74 1.66 1.66v26.68c0 .92-.74 1.66-1.66 1.66h-7.64v-11.62h3.89l.59-4.53h-4.48v-2.9c0-1.3.35-2.18 2.25-2.18l2.38-.02v-4.04c-.4-.06-1.83-.18-3.47-.18-3.46 0-5.84 2.11-5.84 5.98v3.34h-3.91v4.53h3.9V2651h-14.35c-.92 0-1.66-.74-1.66-1.66v-26.68c0-.92.74-1.66 1.66-1.66z"/></defs><g><g transform="translate(-1062 -2621)"><use fill="#6a6157" xlink:href="#53tda"/></g></g></svg>