<svg xmlns="http://www.w3.org/2000/svg" xmlns:xlink="http://www.w3.org/1999/xlink" width="17" height="18" viewBox="0 0 17 18"><defs><path id="ftsea" d="M1467.35 82c.45 0 .85.17 1.18.5a1.61 1.61 0 0 1 0 2.34c-.33.32-.73.48-1.18.48-.46 0-.84-.16-1.16-.48-.32-.32-.48-.7-.48-1.16 0-.45.16-.85.48-1.18.32-.33.7-.5 1.16-.5zm-5-13.32h2.74l.78 1.64h12.35c.23 0 .42.08.58.25.16.17.24.37.24.61 0 .15-.04.27-.12.38l-2.96 5.4c-.15.25-.35.46-.61.62a1.6 1.6 0 0 1-.85.24h-6.21l-.74 1.36-.04.12c0 .05.02.1.06.14a.2.2 0 0 0 .14.06h9.65v1.68h-10.01c-.46 0-.84-.17-1.16-.5a1.65 1.65 0 0 1-.28-1.96l1.12-2.08-3-6.32h-1.69zM1475.71 82c.45 0 .84.17 1.16.5.32.33.48.73.48 1.18 0 .45-.16.84-.48 1.16-.32.32-.71.48-1.16.48-.46 0-.85-.16-1.18-.48-.34-.32-.5-.7-.5-1.16 0-.45.16-.85.5-1.18.33-.33.72-.5 1.18-.5z"/></defs><g><g transform="translate(-1462 -68)"><use fill="#fbf7f1" xlink:href="#ftsea"/></g></g></svg>