<svg xmlns="http://www.w3.org/2000/svg" xmlns:xlink="http://www.w3.org/1999/xlink" width="45" height="44" viewBox="0 0 45 44"><defs><path id="v2t0a" d="M799.476 565.679a3.357 3.357 0 0 1 3.356 3.36 3.356 3.356 0 1 1-6.71 0c0-1.855 1.5-3.36 3.354-3.36zm0 5.038a1.677 1.677 0 1 0 .002-3.358 1.677 1.677 0 0 0-.002 3.358zm25.306-7.521v3.583c0 .894-.724 1.619-1.618 1.619h-1.73a4.448 4.448 0 0 0-4.398-3.798 4.448 4.448 0 0 0-4.392 3.798h-8.776a4.444 4.444 0 0 0-4.39-3.798 4.445 4.445 0 0 0-4.392 3.798h-2.168a1.618 1.618 0 0 1-1.618-1.62v-3.582zm-7.742 2.483a3.36 3.36 0 0 1 0 6.716 3.36 3.36 0 0 1-3.36-3.356 3.36 3.36 0 0 1 3.36-3.36zm0 5.038c.923 0 1.678-.755 1.678-1.678a1.677 1.677 0 1 0-1.678 1.678zm7.104-11.128c.405.404.637.954.637 1.53v1.183H791.3v-3.18l-6.719-1.267 11.746-1.018-11.746-1.67 11.788-1.171-11.637-1.516 6.568-.757v-.253c0-.896.727-1.618 1.618-1.618h18.524c.896 0 1.618.722 1.618 1.618v1.203h3.21c.566 0 1.111.227 1.516.626zm-2.772.21c.227 0 .34-.281.173-.437l-4.98-4.752a.266.266 0 0 0-.177-.071h-1.17a.254.254 0 0 0-.254.254v4.753c0 .14.113.253.253.253z"/></defs><g><g transform="translate(-784 -549)"><g><text dominant-baseline="text-before-edge" transform="translate(784 581)"><tspan font-family="'Open Sans','OpenSans-Regular'" font-size="10">ENTREGA</tspan></text></g></g><g transform="translate(-784 -549)"><use fill="#9e9e9e" xlink:href="#v2t0a"/></g></g></svg>