<svg xmlns="http://www.w3.org/2000/svg" xmlns:xlink="http://www.w3.org/1999/xlink" width="30" height="22" viewBox="0 0 30 22"><defs><path id="t91ma" d="M1142 2635.71c0 2.4 0 4.94-.54 7.27a3.8 3.8 0 0 1-3.23 3.03c-3.71.42-7.48.42-11.23.42s-7.52 0-11.23-.42a3.84 3.84 0 0 1-3.25-3.03c-.52-2.33-.52-4.87-.52-7.27 0-2.39 0-4.93.54-7.26a3.82 3.82 0 0 1 3.23-3.03c3.71-.42 7.48-.42 11.23-.42s7.52 0 11.23.42a3.84 3.84 0 0 1 3.25 3.03c.52 2.33.52 4.87.52 7.26zm-8.56 0c0-.37-.19-.72-.5-.9l-8.58-5.36a1.06 1.06 0 0 0-1.1-.03c-.33.18-.55.55-.55.94v10.7a1.08 1.08 0 0 0 1.08 1.07c.2 0 .4-.05.57-.16l8.58-5.36c.31-.18.5-.53.5-.9z"/></defs><g><g transform="translate(-1112 -2625)"><use fill="#6a6157" xlink:href="#t91ma"/></g></g></svg>