<svg xmlns="http://www.w3.org/2000/svg" xmlns:xlink="http://www.w3.org/1999/xlink" width="17" height="18" viewBox="0 0 17 18"><defs><path id="nh8la" d="M1467.35 42c.455 0 .85.167 1.185.5.335.333.502.727.502 1.18 0 .453-.167.84-.502 1.16-.335.32-.73.48-1.185.48a1.59 1.59 0 0 1-1.165-.48 1.577 1.577 0 0 1-.481-1.16c0-.453.16-.847.481-1.18.322-.333.71-.5 1.165-.5zm-5.01-13.32h2.743l.78 1.64h12.354c.226 0 .42.083.58.25.16.167.24.37.24.61 0 .147-.04.273-.12.38l-2.963 5.4c-.147.253-.35.46-.61.62-.26.16-.544.24-.851.24h-6.207l-.74 1.36-.04.12c0 .053.02.1.06.14.04.04.086.06.14.06h9.65v1.68h-10.01c-.455 0-.842-.167-1.162-.5a1.647 1.647 0 0 1-.48-1.18c0-.253.066-.513.2-.78l1.12-2.08-3.002-6.32h-1.682zM1475.719 42c.455 0 .843.167 1.165.5.321.333.482.727.482 1.18 0 .453-.161.84-.482 1.16-.322.32-.71.48-1.165.48-.455 0-.85-.16-1.185-.48a1.546 1.546 0 0 1-.502-1.16c0-.453.168-.847.502-1.18.335-.333.73-.5 1.185-.5z"/></defs><g><g transform="translate(-1462 -28)"><use fill="#bab1a8" xlink:href="#nh8la"/></g></g></svg>