<svg xmlns="http://www.w3.org/2000/svg" xmlns:xlink="http://www.w3.org/1999/xlink" width="46" height="47" viewBox="0 0 46 47"><defs><path id="tqqaa" d="M1104.55 2682.537a22.855 22.855 0 1 1-21.736-15.791 22.853 22.853 0 0 1 21.736 15.79zm-21.736-13.732a20.795 20.795 0 0 0-12.225 37.619 20.793 20.793 0 0 0 24.449 0 20.796 20.796 0 0 0-12.224-37.619z"/><path id="tqqab" d="M1088.655 2681.101a2.66 2.66 0 0 1 2.657 2.66v11.68a2.657 2.657 0 0 1-2.657 2.656h-11.682a2.657 2.657 0 0 1-2.657-2.656v-11.68a2.66 2.66 0 0 1 2.657-2.66zm-2.204 4.398c0 .26.213.473.475.473h2.052a.474.474 0 0 0 .474-.473v-2.053a.473.473 0 0 0-.474-.474h-2.052a.474.474 0 0 0-.475.474zm-6.77 2.875a3.31 3.31 0 0 0-.233 1.226 3.369 3.369 0 0 0 3.365 3.366 3.369 3.369 0 0 0 3.134-4.592 3.37 3.37 0 0 0-3.134-2.14 3.368 3.368 0 0 0-3.132 2.14zm9.832 0h-1.681a5.164 5.164 0 0 1-5.019 6.391 5.162 5.162 0 0 1-5.164-5.165c0-.423.049-.834.145-1.226h-1.678v7.067c0 .473.384.858.857.858h11.682a.86.86 0 0 0 .858-.858z"/></defs><g><g transform="translate(-1060 -2666)"><use fill="#80754e" xlink:href="#tqqaa"/></g><g transform="translate(-1060 -2666)"><use fill="#80754e" xlink:href="#tqqab"/></g></g></svg>