<svg xmlns="http://www.w3.org/2000/svg" xmlns:xlink="http://www.w3.org/1999/xlink" width="47" height="47" viewBox="0 0 47 47"><defs><path id="phjma" d="M1104.426 1356.468a22.855 22.855 0 1 1-21.735-15.791c9.9 0 18.676 6.375 21.735 15.791zm-21.735-13.732a20.793 20.793 0 0 0-19.777 14.369 20.792 20.792 0 0 0 7.553 23.25 20.791 20.791 0 0 0 24.447 0 20.795 20.795 0 1 0-12.223-37.619z"/><path id="phjmb" d="M1088.532 1355.033a2.66 2.66 0 0 1 2.658 2.658v11.681a2.659 2.659 0 0 1-2.658 2.657h-11.682a2.657 2.657 0 0 1-2.656-2.657v-11.68a2.659 2.659 0 0 1 2.656-2.659zm-2.203 4.397c0 .261.212.473.475.473h2.052a.474.474 0 0 0 .474-.473v-2.053a.472.472 0 0 0-.474-.473h-2.052a.472.472 0 0 0-.475.473zm-6.771 2.875a3.369 3.369 0 0 0 3.133 4.593 3.37 3.37 0 0 0 3.366-3.366 3.37 3.37 0 0 0-3.366-3.367 3.37 3.37 0 0 0-3.133 2.14zm9.832 0h-1.681a5.164 5.164 0 0 1-5.018 6.391 5.162 5.162 0 0 1-5.02-6.39h-1.678v7.066c0 .473.385.858.857.858h11.682a.86.86 0 0 0 .858-.858z"/></defs><g><g transform="translate(-1059 -1340)"><use fill="#80754e" xlink:href="#phjma"/></g><g transform="translate(-1059 -1340)"><use fill="#80754e" xlink:href="#phjmb"/></g></g></svg>