<svg xmlns="http://www.w3.org/2000/svg" xmlns:xlink="http://www.w3.org/1999/xlink" width="104" height="32" viewBox="0 0 104 32"><defs><path id="pldba" d="M458.442 47.01h-5.972l-.012-.007v.007h-.004l.004.003v5.976l.008-.005-.016.016h6.006l-.005-.01V47z"/><path id="pldbb" d="M479.799 22v.002h-.004l.004.003v5.999h4.76v-.007l.005.007h-.004v6.083l.004 12.904.002.007-.02-.004h-5.066l.007.004v5.997l.016-.011h15.952l.029.016h.013v-6.006h-5.074V22.023l.021-.02h-10.627l-.004-.003z"/><path id="pldbc" d="M461.779 22v.002h-.004l.004.003v5.999h4.76v-.007l.005.007h-.004v6.083l.004 12.904v.007l-.018-.004h-5.066l.005.004v5.997l.018-.011h15.952l.027.016h.015v-6.006h-5.074V22.023l.019-.02h-10.627l-.002-.003z"/><path id="pldbd" d="M430.439 40s3.18-.961 6.396-1.061c1.335-.043 2.674.063 3.796.448a4.831 4.831 0 0 1 1.454.771c.449.36.806.81 1.042 1.374.195.469.307 1.013.314 1.646.003.031.006.057.006.087 0 .673-.094 1.246-.261 1.739a3.461 3.461 0 0 1-.988 1.506 4.02 4.02 0 0 1-1.282.743c-.678.25-1.453.366-2.272.39-1.521.042-3.194-.242-4.693-.615-2.498-.615-4.506-1.476-4.506-1.476l-.015.402.015 6.379s1.588.544 3.903 1.013c1.531.308 3.377.582 5.296.64.294.01.59.016.886.013v-.004c1.69 0 3.248-.304 4.622-.854a10.455 10.455 0 0 0 3.011-1.821 9.52 9.52 0 0 0 2.604-3.658 9.687 9.687 0 0 0 .685-3.604c0-.336-.016-.663-.038-.983-.104-1.518-.451-2.872-1.01-4.041a8.631 8.631 0 0 0-2.442-3.076c-1.02-.802-2.232-1.38-3.596-1.713-1.096-.265-2.29-.37-3.563-.308-.1.004-.2.008-.3.015-2.883.202-3.231.2-3.26.192l.003-.005v-5.241h12.913V23h-.016l-.019.02h-18.672V39.98z"/><path id="pldbe" d="M530.33 47.568a4.234 4.234 0 0 1-4.237 4.232h-18.147a4.232 4.232 0 0 1-4.232-4.232h-.011V29.44h.013a4.23 4.23 0 0 1 4.23-4.23v-.01h18.147v.01a4.233 4.233 0 0 1 4.237 4.23h.003v18.128zM501.5 54h31.032V23H501.5z"/><path id="pldbf" d="M525.952 43.744c0 1.481-1.2 2.678-2.68 2.678v.006H511.78v-.006a2.678 2.678 0 0 1-2.682-2.678h-.016V32.269h.016a2.68 2.68 0 0 1 2.682-2.678v-.018h11.492v.018c1.48 0 2.68 1.2 2.68 2.678h.006v11.475zM507.51 48h20.02V28h-20.02z"/><path id="pldbg" d="M522.52 37.282h-4.287V33h-1.434v4.282h-4.289v1.434h4.289V43h1.434v-4.284h4.287z"/></defs><g><g transform="translate(-429 -22)"><use fill="#211e14" xlink:href="#pldba"/></g><g transform="translate(-429 -22)"><use fill="#211e14" xlink:href="#pldbb"/></g><g transform="translate(-429 -22)"><use fill="#211e14" xlink:href="#pldbc"/></g><g transform="translate(-429 -22)"><use fill="#211e14" xlink:href="#pldbd"/></g><g transform="translate(-429 -22)"><use fill="#e75300" xlink:href="#pldbe"/></g><g transform="translate(-429 -22)"><use fill="#e75300" xlink:href="#pldbf"/></g><g transform="translate(-429 -22)"><use fill="#e75300" xlink:href="#pldbg"/></g></g></svg>