<svg xmlns="http://www.w3.org/2000/svg" xmlns:xlink="http://www.w3.org/1999/xlink" width="133" height="70" viewBox="0 0 133 70"><defs><path id="kttua" d="M94 3012.003h126.972v-18.453H94z"/><path id="kttub" d="M211.709 3004.774l-2.763-8.114h2.403l1.545 5.489 1.638-5.489h2.192l-2.775 8.114v3.574h-2.24zm-6.631 1.721l.537-.559v-6.852l-.537-.56h-2v7.971zm-4.26-9.835h5.567l1.48 1.543v8.604l-1.48 1.541h-5.568zm-6.388 7.158h1.984l-.993-5.853zm-.606-7.158h3.313l2.257 11.688h-2.225l-.453-2.675h-2.6l-.455 2.675h-2.093zm-9.344 0h5.934v1.949h-3.675v2.829h3.333v1.947h-3.333v3.015h3.706v1.948h-5.965zm-4.6 5.242l.519-.54v-2.433l-.503-.524h-2.146v3.497zm-4.391-5.242h5.723l1.43 1.509v3.913l-1.218 1.27 1.398 4.996h-2.31l-1.234-4.692h-1.528v4.692h-2.261zm-11.444 0h5.935v1.949h-3.674v2.829h3.33v1.947h-3.33v3.015h3.706v1.948h-5.967zm-4.731 4.812l.536-.56v-1.964l-.488-.509h-2.08v3.033zm.066 5.081l.47-.491v-2.254l-.536-.558h-2.032v3.304zm-4.341-9.893h5.656l1.415 1.474v3l-1.17 1.219 1.17 1.219v3.302l-1.415 1.474h-5.656zm-12.567 10.198v-1.998h2.259v1.15l.471.492h1.562l.472-.491v-2.168l-.359-.39h-3.121l-1.236-1.27v-4.014l1.448-1.509h4.063l1.432 1.492v1.998h-2.26V2999l-.472-.492h-1.48l-.471.491v2.083l.358.373h3.12l1.22 1.286v4.1l-1.447 1.507h-4.129zm-6.08-2.084l-2.765-8.114h2.406l1.546 5.489 1.642-5.489h2.194l-2.78 8.114v3.574h-2.243zm-7.721-.956h1.982l-.992-5.853zm-.606-7.158h3.313l2.257 11.688h-2.226l-.455-2.675h-2.595l-.457 2.675h-2.094zm-14.254 0h2.13l.959 9.368 1.284-9.368h2.926l1.3 9.368.96-9.368h1.869l-1.56 11.688h-2.796l-1.333-9.417-1.317 9.417h-2.845zm-6.08 0h2.259v9.707h3.17v1.981h-5.429zm-6.39 7.158h1.983l-.991-5.853zm-.6-7.158h3.315l2.26 11.688h-2.227l-.456-2.675h-2.6l-.456 2.675H98.48z"/><path id="kttuc" d="M130.013 2972.874h-7.837l-.015-.01v.01h-.006l.006.004v7.967l.01-.007-.021.022h7.882l-.006-.014v-7.986z"/><path id="kttud" d="M156.31 2942v.003h-.004l.005.003v7.52H162v-.009l.005.008h-.005v7.626l.005 16.174.003.01-.023-.006h-6.056l.008.005v7.517l.02-.014h19.066l.033.02h.016v-7.528h-6.064v-31.3l.025-.026h-12.701l-.005-.003z"/><path id="kttue" d="M133.79 2942v.003h-.004l.005.003v7.52h5.69v-.009l.005.008h-.005v7.626l.005 16.174.001.01-.022-.006h-6.055l.006.005v7.517l.022-.014h19.066l.03.02h.019v-7.528h-6.064v-31.3l.023-.026H133.81l-.002-.003z"/><path id="kttuf" d="M95.243 2964.45s3.918-1.206 7.88-1.331c1.645-.054 3.294.079 4.677.561.67.235 1.278.55 1.791.967.553.45.993 1.016 1.284 1.721.24.589.378 1.271.387 2.064.003.04.007.071.007.11 0 .843-.116 1.561-.322 2.179a4.345 4.345 0 0 1-1.217 1.888c-.452.403-.985.71-1.58.932-.834.312-1.789.458-2.798.488-1.874.053-3.935-.303-5.782-.77-3.078-.772-5.551-1.85-5.551-1.85l-.019.503.019 7.995s1.956.683 4.808 1.27c1.887.387 4.161.73 6.525.803.362.012.726.02 1.091.016v-.005c2.083 0 4.002-.381 5.695-1.07a12.84 12.84 0 0 0 3.71-2.283 11.932 11.932 0 0 0 3.207-4.586c.548-1.396.844-2.92.844-4.517 0-.42-.02-.83-.047-1.232-.128-1.903-.556-3.6-1.244-5.066-.732-1.551-1.75-2.844-3.009-3.854-1.255-1.006-2.75-1.73-4.43-2.148-1.35-.331-2.822-.463-4.39-.386-.122.005-.245.01-.37.019-3.551.252-3.98.25-4.015.241l.004-.006v-6.57h15.908v-7.393h-.019l-.023.024H95.259v21.261z"/><path id="kttug" d="M218.65 2973.935c0 2.93-2.342 5.304-5.228 5.304h-22.39c-2.882 0-5.22-2.375-5.22-5.304h-.014v-22.723h.016c0-2.925 2.336-5.3 5.219-5.3v-.014h22.389v.013c2.889 0 5.227 2.376 5.227 5.301h.003v22.723zm-35.57 8.062h38.286v-38.857H183.08z"/><path id="kttuh" d="M212.67 2969.792c0 1.862-1.487 3.367-3.319 3.367v.008h-14.226v-.008c-1.835 0-3.32-1.505-3.32-3.367h-.02v-14.426h.02c0-1.858 1.485-3.366 3.32-3.366v-.023h14.226v.023c1.832 0 3.318 1.508 3.318 3.366h.008v14.426zm-22.83 5.35h24.773V2950H189.84z"/><path id="kttui" d="M224.954 2943.514v-.52h.373c.247 0 .315.078.315.23 0 .157-.068.282-.36.29zm.266.316c.107.008.212 0 .288.081.09.097.09.258.113.432.014.12.046.247.068.362h.399c-.068-.183-.09-.394-.118-.587-.032-.22-.063-.343-.34-.398v-.01c.267-.055.407-.238.407-.472 0-.458-.38-.558-.746-.558h-.647v2.025h.312v-.875zm1.481-.12c0 .784-.62 1.417-1.387 1.417a1.406 1.406 0 0 1-1.397-1.417c0-.775.625-1.409 1.397-1.409a1.4 1.4 0 0 1 1.387 1.409zm-3.081 0c0 .953.755 1.719 1.694 1.719.934 0 1.684-.766 1.684-1.72 0-.943-.75-1.709-1.684-1.709a1.7 1.7 0 0 0-1.694 1.71z"/><path id="kttuj" d="M208.987 2961.094h-5.306v-5.384h-1.774v5.384H196.6v1.801h5.307v5.386h1.774v-5.386h5.306z"/></defs><g><g transform="translate(-94 -2942)"><use fill="#e75300" xlink:href="#kttua"/></g><g transform="translate(-94 -2942)"><use fill="#211e14" xlink:href="#kttub"/></g><g transform="translate(-94 -2942)"><use fill="#fff" xlink:href="#kttuc"/></g><g transform="translate(-94 -2942)"><use fill="#fff" xlink:href="#kttud"/></g><g transform="translate(-94 -2942)"><use fill="#fff" xlink:href="#kttue"/></g><g transform="translate(-94 -2942)"><use fill="#fff" xlink:href="#kttuf"/></g><g transform="translate(-94 -2942)"><use fill="#e75300" xlink:href="#kttug"/></g><g transform="translate(-94 -2942)"><use fill="#e75300" xlink:href="#kttuh"/></g><g transform="translate(-94 -2942)"><use fill="#e75300" xlink:href="#kttui"/></g><g transform="translate(-94 -2942)"><use fill="#e75300" xlink:href="#kttuj"/></g></g></svg>