<svg xmlns="http://www.w3.org/2000/svg" xmlns:xlink="http://www.w3.org/1999/xlink" width="145" height="115" viewBox="0 0 145 115"><defs><path id="4jwra" d="M888 114V-1h145v115z"/><path id="4jwrb" d="M935.99 69.01H930V75L930 75h6v-6z"/><path id="4jwrc" d="M957.32 44v6h4.75V69h.01H957v6H972.97l.03.01h.01v-6H967.93V44.01l.02-.02h-10.61z"/><path id="4jwrd" d="M939.32 44v6h4.75V69h.01H939v6H954.97l.02.01h.02v-6H949.93V44.01l.02-.02h-10.62z"/><path id="4jwre" d="M908 62s3.19-.96 6.4-1.06c1.33-.04 2.67.06 3.79.45.54.18 1.04.44 1.45.77.45.36.8.8 1.04 1.37.2.47.3 1.02.32 1.65v.09c0 .67-.1 1.24-.26 1.73a3.46 3.46 0 0 1-.99 1.51c-.36.32-.8.57-1.28.74-.67.25-1.45.37-2.27.4a18.1 18.1 0 0 1-4.68-.62c-2.5-.62-4.5-1.48-4.5-1.48l-.02.4.02 6.38A34.08 34.08 0 0 0 917.09 76c1.69 0 3.24-.3 4.62-.86a10.44 10.44 0 0 0 3-1.82 9.52 9.52 0 0 0 3.29-7.26c0-.34-.02-.66-.04-.99-.1-1.51-.45-2.87-1-4.04a8.63 8.63 0 0 0-2.45-3.07 9.33 9.33 0 0 0-3.59-1.71 12.58 12.58 0 0 0-3.86-.3c-2.88.2-3.23.2-3.25.2V50.9h12.9V45h-.02l-.02.02h-18.64v16.96z"/><path id="4jwrf" d="M1007.8 69.57c0 2.34-1.9 4.23-4.23 4.23h-18.13a4.23 4.23 0 0 1-4.23-4.23V51.44c0-2.33 1.9-4.23 4.23-4.23v-.01h18.13v.01c2.34 0 4.23 1.9 4.23 4.23v18.13zM979 76h31V45h-31z"/><path id="4jwrg" d="M1003.42 65.74c0 1.49-1.2 2.68-2.67 2.68h-11.48a2.68 2.68 0 0 1-2.68-2.68h-.02V54.27h.02c0-1.48 1.2-2.68 2.68-2.68v-.02h11.48v.02c1.47 0 2.67 1.2 2.67 2.68v11.47zM985 70h20V50h-20z"/><path id="4jwrh" d="M1013.18 45.32v-.45h.34c.22 0 .28.07.28.2s-.06.24-.32.25zm.24.28c.1 0 .18 0 .25.07.08.08.08.22.1.37l.06.32h.35c-.06-.16-.08-.35-.1-.51-.03-.2-.06-.3-.3-.35.23-.06.36-.22.36-.42 0-.4-.34-.48-.66-.48h-.57v1.76h.27v-.76zm1.33-.1a1.24 1.24 0 1 1-2.48.01 1.24 1.24 0 0 1 2.48 0zm-2.75 0a1.5 1.5 0 1 0 3 0 1.5 1.5 0 0 0-3 0z"/><path id="4jwri" d="M1000 59.28h-4.28V55h-1.44v4.28H990v1.44h4.28V65h1.44v-4.28h4.28z"/></defs><g><g transform="translate(-888 1)"><use fill="#211e14" xlink:href="#4jwra"/></g><g transform="translate(-888 1)"><g fill="#fff" font-family="UnitedSansReg-Heavy" font-size="12"><text dominant-baseline="text-before-edge" font-family="Helvetica, Arial, sans-serif" transform="translate(905 81)"><tspan letter-spacing="1.71">PARA LOJISTAS</tspan></text></g></g><g transform="translate(-888 1)"><g><use fill="#fff" xlink:href="#4jwrb"/></g><g><use fill="#fff" xlink:href="#4jwrc"/></g><g><use fill="#fff" xlink:href="#4jwrd"/></g><g><use fill="#fff" xlink:href="#4jwre"/></g><g><use fill="#e75300" xlink:href="#4jwrf"/></g><g><use fill="#e75300" xlink:href="#4jwrg"/></g><g><use fill="#e75300" xlink:href="#4jwrh"/></g><g><use fill="#e75300" xlink:href="#4jwri"/></g></g></g></svg>