<svg class="icon-color" version="1.1" id="Camada_1" xmlns="http://www.w3.org/2000/svg" xmlns:xlink="http://www.w3.org/1999/xlink" x="0px" y="0px"
	 width="258.2px" height="60.5px" viewBox="0 0 258.2 60.5" style="enable-background:new 0 0 258.2 60.5;" xml:space="preserve">
<g id="logo">
	<g id="XMLID_45_">
		<path id="XMLID_64_" class="st0" d="M22.1,31.4v6.4H6.7v22.4l-6.7,0V13h26.8v6.4H6.7v12H22.1z"/>
		<path id="XMLID_58_" class="st0" d="M45.9,34c-0.7-0.2-1.5-0.3-2.5-0.3c-3.3,0-6.8,2.3-8.5,5.3v21.1h-6.4V28.4h6.2V32
			c1.5-2.1,4.8-4.3,9.4-4.3c0.7,0,1.7,0.1,2.5,0.2L45.9,34z"/>
		<path id="XMLID_53_" class="st0" d="M72.2,57c-2.5,2.3-6,3.5-9.7,3.5c-2.8,0-5.8-0.8-7.9-2.1c-4.7-2.8-8-8-8-14.3
			c0-6.3,3.3-11.6,8.1-14.4c2.1-1.3,4.7-2,7.7-2c3.5,0,7,1.1,9.8,3.5v-2.9h6.2v31.8h-6.2V57z M72,38.2c-1.9-2.5-5.2-4.5-9-4.5
			C57,33.8,53,38.6,53,44.1c0,5.6,4.3,10.4,10.4,10.4c3.2,0,6.5-1.6,8.6-4.5V38.2z"/>
		<path id="XMLID_51_" class="st0" d="M107.2,59.9c-1.2,0.4-3.1,0.7-5,0.7c-3.9,0-6.9-1.4-8.9-3.7c-1.9-2.1-2.5-5-2.5-8.4V34.1h-8
			v-5.7h8v-8.7h6.4v8.7h10v5.7h-10v14.7c0,1.7,0.1,3.1,0.9,4c0.9,1.1,2.7,1.7,4.3,1.7c0.9,0,2.5-0.1,3.5-0.4L107.2,59.9z"/>
		<path id="XMLID_48_" class="st0" d="M114.9,45.5c0.3,5.3,4.7,9.5,10.2,9.5c4.7,0,7.2-2.3,9-4.3l4.1,3.9c-2.3,3-6.8,5.9-13.2,5.9
			c-9.2,0-16.3-7-16.3-16.4c0-9.4,6.4-16.4,15.3-16.4c8.8,0,15.1,7.1,15.1,16.4c0,0.3,0,0.7-0.1,1.3H114.9z M115.4,40.1h17.1
			c-0.9-4-4.5-6.8-8.3-6.8C120.1,33.3,116.5,36,115.4,40.1z"/>
		<path id="XMLID_46_" class="st0" d="M145.4,51.5c2.9,2.3,6.2,3.5,9.3,3.5c2.7,0,5.5-1.5,5.5-3.9c0-3.6-5.2-3.8-9.8-5.4
			c-3.8-1.3-7.2-3.7-7.2-8.1c0-6.8,6-9.8,11.6-9.8c4.6,0,8,1.5,10.4,3.5l-3.3,4.5c-1.9-1.5-4.2-2.5-6.8-2.5c-3.1,0-5.7,1.5-5.7,3.9
			c0,2.1,2.5,2.9,5.6,3.7c5,1.3,11.4,3.5,11.4,10c0,6-5.6,9.6-11.7,9.6c-5,0-9.2-1.5-12.7-4.3L145.4,51.5z"/>
	</g>
	<g id="XMLID_40_">
		<g id="XMLID_37_">
			<path id="XMLID_42_" class="st0" d="M255.4,0l2.7,5.6c0,0-9,7.3-22.4,7.9c-1.7,0.1-3.8,0.1-5.8-0.1c-4.6-0.3-5.4-1.4-8.3-0.6
				c-2.1,0.5-3.7,2-4.7,3.6c-1,1.7-1.2,3.5-1.2,3.5c0.4,0.1,7.6,3,17.9,2.1c3.7-0.3,7.2-1.2,10.6-2.4l1.2,2.5l1.5,3.1
				c-5.1,2-10,2.7-12.6,3c-10.9,1.1-19.4-2-19.5-2l-1.2,7.2c1.2,0.5,2.4,0.9,3.6,1.2c2.2,0.5,4.5,0.8,6.8,0.7c0.1,0,0.2,0,0.3,0
				l2.8,5.9c0,0-1.5,0.2-1.8,0.2c-2.1,0.1-4.2,0.1-6.2-0.2c-2.3-0.3-4.4-0.8-6.5-1.6c0,0-0.8,7.6-5.5,14c-1.2,1.6-2.5,3.2-4,4.6
				c-0.2,0.2-0.4,0.4-0.6,0.6c-0.5,0.5-1,0.9-1.6,1.3c-1.9,0.3-3.8,0.4-5.7,0.4c-0.9,0-1.9,0-2.8-0.1l-1-1.8c3-1.2,5.7-3,8-5.3
				c1-1,1.9-2,2.7-3.2c4-5.5,4.5-11.9,4.5-11.9c2,0.5,3.5,0.5,3.7,0.5c-7.4-3.1-11.3-8.6-12.4-9.9c-1.5-1.7-3.6-2.8-5.9-2.8
				c-3.4,0-5.4,2-6.3,3.1l-2.4-5.1c2.8-9.7,11.3-10.6,13.4-10.6c6.1,0,13.2,4.1,13.4,4.2c0.4-1.8,2.6-9.2,11.3-10.8
				c2.3-0.4,5.4,0.2,6,0.3c3.9,0.7,7.8,0.7,11.8,0C239.2,7,247.8,6,255.4,0z M208.8,25c1.9,0.3,3.3,0.2,3.4,0.2
				c-0.6-0.1-2.1-0.7-3.8-1.7c-4.4-2.4-10.6-5.1-14.3-3.6c2.4,0.4,4.6,1.4,6.6,3c1.9,1.5,4.3,5.2,7.3,7.2L208.8,25z"/>
		</g>
	</g>
</g>
</svg>
