<svg xmlns="http://www.w3.org/2000/svg" xmlns:xlink="http://www.w3.org/1999/xlink" width="259" height="61" viewBox="0 0 259 61"><defs><path id="jcw4a" d="M42.199 100.506v6.355H26.813v22.395l-6.69.001V82.11h26.758v6.355H26.813v12.041z"/><path id="jcw4b" d="M66.025 103.115c-.735-.2-1.472-.268-2.475-.268-3.278 0-6.756 2.275-8.496 5.285v21.125H48.7v-31.76h6.154v3.612c1.538-2.14 4.817-4.282 9.432-4.282.669 0 1.739.067 2.475.201z"/><path id="jcw4c" d="M92.368 126.06c-2.542 2.275-5.953 3.545-9.7 3.545-2.81 0-5.752-.802-7.893-2.073-4.75-2.81-8.027-8.028-8.027-14.316 0-6.287 3.345-11.572 8.094-14.382 2.14-1.27 4.75-2.006 7.693-2.006 3.545 0 6.956 1.07 9.833 3.545v-2.876h6.154v31.76h-6.154zm-.201-18.73c-1.94-2.542-5.15-4.482-8.963-4.482-6.088 0-10.101 4.883-10.101 10.368 0 5.62 4.348 10.369 10.435 10.369 3.21 0 6.488-1.606 8.629-4.482z"/><path id="jcw4d" d="M127.312 128.936c-1.204.401-3.145.67-4.95.67-3.947 0-6.89-1.406-8.898-3.68-1.873-2.074-2.542-4.95-2.542-8.362v-14.382h-8.026v-5.685h8.026V88.8h6.356v8.697h10.034v5.685h-10.034v14.716c0 1.673.134 3.078.936 4.014.87 1.07 2.676 1.673 4.348 1.673.937 0 2.542-.134 3.48-.4z"/><path id="jcw4e" d="M134.977 114.555a10.13 10.13 0 0 0 10.168 9.499c4.682 0 7.224-2.275 9.03-4.282l4.148 3.947c-2.34 3.01-6.824 5.886-13.246 5.886-9.164 0-16.254-6.957-16.254-16.39 0-9.43 6.421-16.387 15.32-16.387 8.762 0 15.116 7.09 15.116 16.388 0 .268 0 .736-.066 1.339zm.535-5.352h17.125c-.937-4.014-4.549-6.823-8.295-6.823a9.138 9.138 0 0 0-8.83 6.823z"/><path id="jcw4f" d="M165.546 120.574c2.943 2.275 6.154 3.48 9.3 3.48 2.741 0 5.484-1.473 5.484-3.948 0-3.612-5.218-3.813-9.834-5.352-3.812-1.27-7.224-3.679-7.224-8.094 0-6.755 6.02-9.833 11.64-9.833 4.615 0 7.96 1.472 10.435 3.48l-3.278 4.547c-1.94-1.47-4.214-2.475-6.756-2.475-3.078 0-5.686 1.472-5.686 3.947 0 2.141 2.475 2.876 5.62 3.68 4.95 1.27 11.438 3.478 11.438 9.966 0 5.954-5.552 9.633-11.706 9.633-5.018 0-9.232-1.539-12.71-4.348z"/><path id="jcw4g" d="M275.546 69.085l2.742 5.61s-9.042 7.277-22.42 7.929c-1.696.083-3.832.053-5.788-.076-4.645-.31-5.437-1.356-8.297-.604-2.083.547-3.7 1.979-4.657 3.557a8.715 8.715 0 0 0-1.16 3.519c.378.129 7.564 3.027 17.855 2.053a41.524 41.524 0 0 0 10.599-2.446l1.152 2.46 1.46 3.118c-5.137 2.005-9.956 2.707-12.603 2.977-10.864 1.108-19.393-2.004-19.517-2.044l-1.238 7.18a25.384 25.384 0 0 0 10.424 1.842c.104-.004.21-.01.315-.013l2.78 5.936s-1.488.15-1.828.175a31.75 31.75 0 0 1-6.211-.188 31.502 31.502 0 0 1-6.545-1.571s-.803 7.614-5.458 14.012c-1.198 1.646-2.501 3.185-3.961 4.563-.211.199-.425.395-.642.588a30.97 30.97 0 0 1-1.571 1.291 40.433 40.433 0 0 1-5.733.414 40.4 40.4 0 0 1-2.795-.108l-.998-1.792a24.177 24.177 0 0 0 8.026-5.328 26.452 26.452 0 0 0 2.675-3.174c3.967-5.467 4.478-11.859 4.478-11.859 2.043.51 3.537.474 3.68.47-7.375-3.126-11.26-8.564-12.412-9.884-1.507-1.726-3.552-2.775-5.878-2.775-3.39 0-5.431 1.992-6.28 3.137l-2.403-5.125c2.786-9.743 11.327-10.565 13.42-10.565 6.145 0 13.244 4.091 13.437 4.192.388-1.83 2.577-9.225 11.25-10.799 2.282-.414 5.366.186 6.029.298 3.884.662 7.833.678 11.773.047.119-.019 8.696-1.053 16.3-7.018zM228.88 94.064c1.944.307 3.323.179 3.443.167-.577-.145-2.061-.692-3.817-1.658-4.417-2.43-10.618-5.113-14.342-3.612 2.398.38 4.622 1.44 6.588 2.97 1.944 1.515 4.26 5.237 7.253 7.203z"/></defs><g><g transform="translate(-20 -69)"><use fill="#80754e" xlink:href="#jcw4a"/></g><g transform="translate(-20 -69)"><use fill="#80754e" xlink:href="#jcw4b"/></g><g transform="translate(-20 -69)"><use fill="#80754e" xlink:href="#jcw4c"/></g><g transform="translate(-20 -69)"><use fill="#80754e" xlink:href="#jcw4d"/></g><g transform="translate(-20 -69)"><use fill="#80754e" xlink:href="#jcw4e"/></g><g transform="translate(-20 -69)"><use fill="#80754e" xlink:href="#jcw4f"/></g><g transform="translate(-20 -69)"><use fill="#80754e" xlink:href="#jcw4g"/></g></g></svg>