<svg xmlns="http://www.w3.org/2000/svg" xmlns:xlink="http://www.w3.org/1999/xlink" width="104" height="32" viewBox="0 0 104 32"><defs><path id="zftma" d="M458.464 88.01h-5.973l-.01-.007v.007h-.005l.004.003v5.976l.008-.005-.016.016h6.006l-.005-.01V88z"/><path id="zftmb" d="M479.819 63v.002h-.004l.004.003v5.999h4.76v-.007l.005.007h-.004v6.083l.004 12.904.002.007-.02-.004H479.5l.007.004v5.997l.016-.011h15.952l.029.016h.013v-6.006h-5.074V63.023l.021-.02h-10.627l-.004-.003z"/><path id="zftmc" d="M461.8 63v.002h-.004l.004.003v5.999h4.761v-.007l.004.007h-.004v6.083l.004 12.904.001.007-.019-.004h-5.066l.005.004v5.997l.018-.011h15.953l.026.016h.015v-6.006H472.425V63.023l.018-.02h-10.627l-.002-.003z"/><path id="zftmd" d="M430.457 81s3.18-.961 6.396-1.061c1.335-.043 2.674.063 3.796.448a4.831 4.831 0 0 1 1.454.771c.449.36.806.81 1.042 1.374.195.469.307 1.013.314 1.646.003.031.006.057.006.087 0 .673-.094 1.246-.261 1.739a3.462 3.462 0 0 1-.988 1.506 4.02 4.02 0 0 1-1.282.743c-.678.25-1.453.366-2.272.39-1.521.042-3.194-.242-4.693-.615a32.562 32.562 0 0 1-4.506-1.476l-.015.402.015 6.379s1.588.544 3.903 1.013c1.531.308 3.377.582 5.296.64.294.01.59.016.886.013v-.004c1.69 0 3.248-.304 4.622-.854a10.455 10.455 0 0 0 3.011-1.821 9.52 9.52 0 0 0 2.604-3.658 9.687 9.687 0 0 0 .685-3.604c0-.336-.016-.663-.039-.983-.103-1.518-.45-2.872-1.01-4.041a8.631 8.631 0 0 0-2.442-3.076c-1.018-.802-2.231-1.38-3.595-1.713-1.096-.265-2.29-.37-3.563-.308-.1.004-.2.008-.3.015-2.884.202-3.232.2-3.26.192l.003-.005v-5.241h12.913V64h-.016l-.019.02H430.47V80.98z"/><path id="zftme" d="M530.353 88.568a4.234 4.234 0 0 1-4.237 4.232H507.97a4.232 4.232 0 0 1-4.232-4.232h-.011V70.44h.013a4.23 4.23 0 0 1 4.23-4.23v-.01h18.147v.01a4.233 4.233 0 0 1 4.237 4.23h.002v18.128zM501.523 95h31.032V64h-31.032z"/><path id="zftmf" d="M525.971 84.744c0 1.481-1.2 2.678-2.68 2.678v.006h-11.492v-.006a2.678 2.678 0 0 1-2.681-2.678h-.017V73.269h.017a2.68 2.68 0 0 1 2.68-2.678v-.018h11.493v.018c1.48 0 2.68 1.2 2.68 2.678h.006v11.475zM507.529 89h20.021V69h-20.02z"/><path id="zftmg" d="M522.545 78.282h-4.288V74h-1.434v4.282h-4.289v1.434h4.29V84h1.433v-4.284h4.288z"/></defs><g><g transform="translate(-429 -63)"><use fill="#fff" xlink:href="#zftma"/></g><g transform="translate(-429 -63)"><use fill="#fff" xlink:href="#zftmb"/></g><g transform="translate(-429 -63)"><use fill="#fff" xlink:href="#zftmc"/></g><g transform="translate(-429 -63)"><use fill="#fff" xlink:href="#zftmd"/></g><g transform="translate(-429 -63)"><use fill="#e75300" xlink:href="#zftme"/></g><g transform="translate(-429 -63)"><use fill="#e75300" xlink:href="#zftmf"/></g><g transform="translate(-429 -63)"><use fill="#e75300" xlink:href="#zftmg"/></g></g></svg>