<svg class="lupa-color" xmlns="http://www.w3.org/2000/svg" xmlns:xlink="http://www.w3.org/1999/xlink" width="29" height="30" viewBox="0 0 29 30"><defs><path id="hdw4a" d="M1327.479 88.447c-6.189 0-11.208 5.017-11.208 11.206 0 6.19 5.019 11.209 11.208 11.209 2.38 0 4.587-.742 6.401-2.006l8.476 8.474c.076.076.2.076.273.006l1.597-1.598c.073-.073.067-.2-.006-.273l-8.365-8.364a11.162 11.162 0 0 0 2.831-7.447c0-6.19-5.019-11.207-11.207-11.207zm0 21.096c-5.462 0-9.89-4.428-9.89-9.89 0-5.46 4.428-9.889 9.89-9.889 5.461 0 9.889 4.429 9.889 9.89s-4.428 9.89-9.889 9.89z"/></defs><g><g transform="translate(-1316 -88)"><use fill="#ffffff" xlink:href="#hdw4a"/></g></g></svg>