<svg xmlns="http://www.w3.org/2000/svg" xmlns:xlink="http://www.w3.org/1999/xlink" width="22" height="17" viewBox="0 0 22 17"><defs><path id="blu1a" d="M67 359.553v12.094a1.55 1.55 0 0 1-1.545 1.553H48.548A1.552 1.552 0 0 1 47 371.647v-12.094c0-.858.695-1.553 1.548-1.553h16.907A1.55 1.55 0 0 1 67 359.553zm-18.827-.865l8.867 8.844 8.79-8.844zm-.485 13.325l6.41-6.448-6.41-6.389zm18.143.498l-6.384-6.422-2.163 2.173a.34.34 0 0 1-.485 0l-2.212-2.204-6.414 6.453zm.495-13.335l-6.394 6.42 6.394 6.417z"/></defs><g><g transform="translate(-46 -357)"><use fill="#fff" fill-opacity="0" stroke="#fff" stroke-miterlimit="50" stroke-width=".3" xlink:href="#blu1a"/></g></g></svg>