<svg xmlns="http://www.w3.org/2000/svg" xmlns:xlink="http://www.w3.org/1999/xlink" width="27" height="21" viewBox="0 0 27 21"><defs><path id="zxbra" d="M802.07 502c1.065 0 1.93.87 1.93 1.942v15.116a1.937 1.937 0 0 1-1.93 1.942h-21.135a1.94 1.94 0 0 1-1.935-1.942v-15.116a1.94 1.94 0 0 1 1.935-1.942zm-21.604.86l11.084 11.045 10.989-11.045zm-.606 16.669l8.014-8.066-8.014-7.993zm22.679.61l-7.98-8.028-2.704 2.717a.426.426 0 0 1-.607 0l-2.764-2.755-8.018 8.066zm.596-16.669l-7.97 8.032 7.97 8.027z"/><path id="zxbrb" d="M804 503.942v15.116a1.937 1.937 0 0 1-1.93 1.942h-21.135a1.94 1.94 0 0 1-1.935-1.942v-15.116a1.94 1.94 0 0 1 1.935-1.942h21.134c1.066 0 1.931.87 1.931 1.942zm-23.534-1.082l11.084 11.045 10.989-11.045zm-.606 16.669l8.014-8.066-8.014-7.993zm22.679.61l-7.98-8.028-2.704 2.717a.426.426 0 0 1-.607 0l-2.764-2.755-8.018 8.066zm.596-16.669l-7.97 8.032 7.97 8.027z"/></defs><g><g transform="translate(-778 -501)"><g><use fill="#fff" xlink:href="#zxbra"/></g><g><use fill="#fff" fill-opacity="0" stroke="#fff" stroke-miterlimit="50" stroke-width=".3" xlink:href="#zxbrb"/></g></g></g></svg>