<svg id="Camada_1" data-name="Camada 1" xmlns="http://www.w3.org/2000/svg" viewBox="0 0 18.66 15.55"><defs><style>.cls-1{fill:#fff}</style></defs><g id="HEADER"><g id="Departamentos"><g id="_0._Dpto" data-name="0. Dpto"><path class="cls-1" d="M40.42 153.27a.73.73 0 0 0-.78-.78h-17.1a.73.73 0 0 0-.78.78v1.55a.73.73 0 0 0 .78.78h17.1a.73.73 0 0 0 .78-.78v-1.55zM40.42 159.49a.73.73 0 0 0-.78-.78h-17.1a.73.73 0 0 0-.78.78V161a.73.73 0 0 0 .78.78h17.1a.73.73 0 0 0 .78-.78v-1.55zM40.42 165.71a.73.73 0 0 0-.78-.78h-17.1a.73.73 0 0 0-.78.78v1.55a.73.73 0 0 0 .78.78h17.1a.73.73 0 0 0 .78-.78v-1.55z" transform="translate(-21.76 -152.49)"/></g></g></g></svg>