<svg xmlns="http://www.w3.org/2000/svg" xmlns:xlink="http://www.w3.org/1999/xlink" width="35" height="35" viewBox="0 0 35 35"><defs><path id="j35qa" d="M1065.286 596.143c0 9.464-7.679 17.143-17.143 17.143S1031 605.607 1031 596.143 1038.679 579 1048.143 579s17.143 7.679 17.143 17.143zm-5 0c0-6.697-5.447-12.143-12.143-12.143-6.697 0-12.143 5.446-12.143 12.143 0 6.696 5.446 12.143 12.143 12.143 6.696 0 12.143-5.447 12.143-12.143zm-3.148-1.853l-9.42 9.42a1.415 1.415 0 0 1-2.008 0l-6.563-6.563a1.415 1.415 0 0 1 0-2.009l2.277-2.276a1.415 1.415 0 0 1 2.009 0l3.281 3.28 6.139-6.138a1.415 1.415 0 0 1 2.009 0l2.276 2.277c.558.558.558 1.451 0 2.01z"/></defs><g><g transform="translate(-1031 -579)"><use fill="#e75300" xlink:href="#j35qa"/></g></g></svg>