<svg data-name="Camada 1" xmlns="http://www.w3.org/2000/svg" viewBox="0 0 18.95 18.9"><path d="M18.52 14.95l-2.92-2.89a1.53 1.53 0 0 0-2.15 0l-1.47 1.47-.29-.16a14.67 14.67 0 0 1-3.55-2.56 14.75 14.75 0 0 1-2.57-3.55l-.16-.28 1-1 .49-.49a1.52 1.52 0 0 0 0-2.15L3.97.41a1.52 1.52 0 0 0-2.15 0L1 1.24a4.77 4.77 0 0 0-.68 1.2 5 5 0 0 0-.3 1.22c-.39 3.2 1.08 6.13 5 10.1 5.49 5.49 9.92 5.08 10.11 5.06a4.94 4.94 0 0 0 1.22-.31 4.75 4.75 0 0 0 1.19-.68l.84-.82a1.53 1.53 0 0 0 .14-2.06z" fill="#004774" data-name="TIP - ATENDIMENTO"/></svg>