<svg xmlns="http://www.w3.org/2000/svg" xmlns:xlink="http://www.w3.org/1999/xlink" width="16" height="16" viewBox="0 0 16 16"><defs><path id="9voea" d="M60.714 1123.786v2.143c0 .591-.48 1.071-1.071 1.071H55v4.643c0 .591-.48 1.071-1.071 1.071h-2.143c-.592 0-1.072-.48-1.072-1.071V1127h-4.643c-.591 0-1.071-.48-1.071-1.071v-2.143c0-.592.48-1.072 1.071-1.072h4.643v-4.643c0-.591.48-1.071 1.072-1.071h2.143c.591 0 1.071.48 1.071 1.071v4.643h4.643c.591 0 1.071.48 1.071 1.072z"/></defs><g><g transform="translate(-45 -1117)"><use fill="#e75300" xlink:href="#9voea"/></g></g></svg>