<svg id="Camada_1" data-name="Camada 1" xmlns="http://www.w3.org/2000/svg" viewBox="0 0 31.11 30.74"><defs><style>.cls-1{fill:#004774}</style></defs><g id="BENEFÍCIOS"><g id="Troca_grátis" data-name="Troca grátis"><g id="Desconto_na_primeira" data-name="Desconto na primeira"><path class="cls-1" d="M743.63 662.39a13.35 13.35 0 0 1 5.7-16.69v5.51h2.2v-8.37h-8.37V645h3.21a15.55 15.55 0 0 0 7.21 27.61l.34-2.18a13.26 13.26 0 0 1-10.29-8.04zM770.32 663.23a15.56 15.56 0 0 0-4.86-18.23 15.65 15.65 0 0 0-7.13-3.06l-.33 2.15a13.35 13.35 0 0 1 4.6 24.78v-5.51h-2.2v8.37h8.37v-2.2h-3.2a15.46 15.46 0 0 0 4.75-6.3z" transform="translate(-740.41 -641.91)"/></g></g></g></svg>