<svg data-name="Camada 1" xmlns="http://www.w3.org/2000/svg" viewBox="0 0 20.42 19.6"><path d="M15.29 19.6a2 2 0 0 1-.93-.23l-4.15-2.18-4.15 2.18a2 2 0 0 1-2.88-2.1l.79-4.62L.61 9.37a2 2 0 0 1 1.1-3.39l4.64-.67L8.43 1.1a2 2 0 0 1 3.57 0l2.08 4.21 4.64.67a2 2 0 0 1 1.1 3.39l-3.36 3.28.79 4.62a2 2 0 0 1-1.96 2.33zm-5.08-2.45l4.16 2.19a2 2 0 0 0 2.84-2.06l-.8-4.64 3.37-3.29a2 2 0 0 0-1.08-3.33l-4.66-.68-2.08-4.22a2 2 0 0 0-3.5 0L6.37 5.34l-4.65.68A2 2 0 0 0 .64 9.35l3.37 3.29-.79 4.63a2 2 0 0 0 2.84 2.06zm5.08 1a.53.53 0 0 1-.25-.06l-4.6-2.42a.51.51 0 0 0-.47 0l-4.6 2.42a.53.53 0 0 1-.25.06.54.54 0 0 1-.41-.19.52.52 0 0 1-.12-.43l.88-5.12a.5.5 0 0 0-.14-.44L1.61 8.35a.54.54 0 0 1 .3-.91l5.14-.75a.5.5 0 0 0 .38-.27l2.3-4.66a.54.54 0 0 1 1 0l2.3 4.66a.5.5 0 0 0 .38.27l5.14.75a.54.54 0 0 1 .3.91l-3.72 3.62a.5.5 0 0 0-.14.44l.88 5.12a.52.52 0 0 1-.12.43.54.54 0 0 1-.46.19zm-5.08-2.57a.54.54 0 0 1 .25.06l4.6 2.42a.5.5 0 0 0 .23.06.5.5 0 0 0 .39-.18.49.49 0 0 0 .11-.41l-.88-5.12a.54.54 0 0 1 .15-.47l3.72-3.62a.5.5 0 0 0-.28-.86l-5.14-.75a.54.54 0 0 1-.4-.29l-2.3-4.66a.5.5 0 0 0-.9 0l-2.3 4.66a.54.54 0 0 1-.4.29l-5.14.75a.5.5 0 0 0-.28.86l3.72 3.62a.54.54 0 0 1 .15.47l-.88 5.12a.49.49 0 0 0 .11.41.5.5 0 0 0 .39.18.5.5 0 0 0 .23-.06l4.6-2.42a.54.54 0 0 1 .25-.06z" fill="#bdbdbd" data-name="1"/></svg>