<svg data-name="Camada 1" xmlns="http://www.w3.org/2000/svg" viewBox="0 0 20.38 19.58"><g data-name="MAIS VENDIDOS"><path d="M19.73 6.46a2 2 0 0 0-1-.47l-4.65-.68L12 1.09a2 2 0 0 0-3.54 0L6.38 5.31l-4.65.68A2 2 0 0 0 .64 9.35l3.37 3.28-.79 4.63a2 2 0 0 0 2.86 2.08l4.16-2.19 4.16 2.19a2 2 0 0 0 2.86-2.08l-.79-4.63 3.37-3.28a2 2 0 0 0-.11-2.89zm.61 1.91a2 2 0 0 1-.54 1l-3.37 3.29.8 4.64a2 2 0 0 1-2.84 2.06l-4.16-2.19-4.17 2.19a2 2 0 0 1-2.84-2.06l.79-4.63L.64 9.38a2 2 0 0 1 1.08-3.33l4.65-.68 2.09-4.22a2 2 0 0 1 3.5 0l2.08 4.22 4.66.68a2 2 0 0 1 1.62 2.33z" fill="#e5b232" data-name="4"/></g></svg>