<svg xmlns="http://www.w3.org/2000/svg" xmlns:xlink="http://www.w3.org/1999/xlink" width="25" height="25" viewBox="0 0 25 25"><defs><path id="m8y2a" d="M339.771 26.486a10.355 10.355 0 0 1 0-7.976 10.342 10.342 0 0 1 4.451-5.058v4.3h1.72v-6.535h-6.534v1.72h2.508c-4.184 3.276-5.865 9.063-3.734 14.207a12.145 12.145 0 0 0 3.796 4.966 12.211 12.211 0 0 0 5.57 2.388l.263-1.699a10.352 10.352 0 0 1-8.04-6.313z"/><path id="m8y2b" d="M360.615 27.145a12.07 12.07 0 0 0 0-9.292 12.137 12.137 0 0 0-9.365-7.354l-.264 1.699a10.359 10.359 0 0 1 8.04 6.313 10.346 10.346 0 0 1 0 7.976 10.34 10.34 0 0 1-4.452 5.058v-4.298h-1.72v6.533h6.534v-1.72h-2.5a12.086 12.086 0 0 0 3.727-4.915z"/></defs><g><g transform="translate(-337 -10)"><use fill="#fff" xlink:href="#m8y2a"/></g><g transform="translate(-337 -10)"><use fill="#fff" xlink:href="#m8y2b"/></g></g></svg>