<svg data-name="Camada 1" xmlns="http://www.w3.org/2000/svg" viewBox="0 0 51.33 28.78"><g data-name="Frete especial"><path d="M19.02 20.21a4.29 4.29 0 1 0 4.28 4.29 4.29 4.29 0 0 0-4.28-4.29zm0 6.43a2.14 2.14 0 1 1 2.14-2.14 2.14 2.14 0 0 1-2.14 2.14zm32.31-9.6v4.57a2.07 2.07 0 0 1-2.07 2.07h-2.21a5.67 5.67 0 0 0-11.22 0h-11.2a5.67 5.67 0 0 0-11.21 0h-2.77a2.07 2.07 0 0 1-2.07-2.07v-4.57h42.75zm-9.84 3.17a4.29 4.29 0 1 0 4.28 4.29 4.29 4.29 0 0 0-4.28-4.29zm0 6.43a2.14 2.14 0 1 1 2.14-2.14 2.14 2.14 0 0 1-2.14 2.14zm9-14.25l-8.12-8a2.76 2.76 0 0 0-1.94-.8h-4.1V2.05a2.06 2.06 0 0 0-2.07-2.07H10.65a2.07 2.07 0 0 0-2.07 2.07v.34l-8.39 1 14.86 1.93L0 6.82l15 2.13-15 1.3 8.58 1.62v4.06h42.75v-1.54a2.77 2.77 0 0 0-.84-2zm-3.54.27h-7.86a.32.32 0 0 1-.32-.32V6.27a.32.32 0 0 1 .32-.32h1.49a.35.35 0 0 1 .23.09l6.36 6.07a.32.32 0 0 1-.19.59z" fill="#004774" data-name="Desconto na primeira"/></g></svg>