<svg xmlns="http://www.w3.org/2000/svg" xmlns:xlink="http://www.w3.org/1999/xlink" width="47" height="47" viewBox="0 0 47 47"><defs><path id="o5l5a" d="M1245.25 1356.619a22.855 22.855 0 1 1-21.736-15.791 22.853 22.853 0 0 1 21.737 15.79zm-21.735-13.732a20.794 20.794 0 0 0-19.777 14.369 20.794 20.794 0 0 0 7.553 23.25 20.793 20.793 0 0 0 24.448 0 20.792 20.792 0 0 0 7.553-23.25 20.794 20.794 0 0 0-19.777-14.37z"/><path id="o5l5b" d="M1220.129 1368.64c-2.302-.08-3.741-1.732-4.122-3.075a4.375 4.375 0 0 0 1.899-.056c.017-.003.033-.014.065-.03-1.248-.29-2.21-.956-2.88-2.032a4.321 4.321 0 0 1-.648-2.355 4.404 4.404 0 0 0 1.972.536c-.937-.676-1.566-1.56-1.823-2.69-.256-1.125-.091-2.195.475-3.207 2.399 2.825 5.435 4.376 9.137 4.63-.024-.176-.053-.33-.07-.485-.124-1.043.084-2.015.647-2.897.704-1.106 1.712-1.793 3.004-2.004 1.49-.243 2.79.18 3.88 1.237.072.07.133.093.235.07.91-.2 1.77-.526 2.578-.992a.523.523 0 0 1 .058-.03l.03-.001c-.351 1.029-.99 1.824-1.898 2.41a8.484 8.484 0 0 0 2.468-.664l.017.02c-.17.222-.333.449-.508.665a8.721 8.721 0 0 1-1.611 1.53c-.051.038-.075.073-.073.14.023.657-.001 1.314-.082 1.966a13.044 13.044 0 0 1-1.143 3.945 12.724 12.724 0 0 1-2.395 3.493c-1.688 1.744-3.721 2.87-6.09 3.394-.81.178-1.634.268-2.467.292a12.514 12.514 0 0 1-7.09-1.903c-.027-.016-.055-.035-.103-.067 1.546.166 3.017-.031 4.432-.61a8.878 8.878 0 0 0 2.106-1.23z"/></defs><g><g transform="translate(-1200 -1340)"><use fill="#80754e" xlink:href="#o5l5a"/></g><g transform="translate(-1200 -1340)"><use fill="#80754e" xlink:href="#o5l5b"/></g></g></svg>