<svg id="Camada_1" data-name="Camada 1" xmlns="http://www.w3.org/2000/svg" viewBox="0 0 35.78 35.78"><defs><style>.cls-1{fill:#616161}</style></defs><g id="HEADER"><g id="Menu_bar" data-name="Menu bar"><g id="Minha_conta" data-name="Minha conta"><g id="Conta"><g id="ic_login"><g id="_Grupo_" data-name="&lt;Grupo&gt;"><g id="group-63svg"><path id="path-1" class="cls-1" d="M1131.57 97.22a.79.79 0 0 1-.79-.79 10.45 10.45 0 0 0-20.9 0 .79.79 0 1 1-1.58 0 12 12 0 0 1 24.06 0 .79.79 0 0 1-.79.79z" transform="translate(-1102.44 -65.83)"/><path id="path-2" class="cls-1" d="M1119.8 85.12a6.94 6.94 0 1 1 6.94-6.94 6.94 6.94 0 0 1-6.94 6.94zm0-12.29a5.35 5.35 0 1 0 5.35 5.35 5.36 5.36 0 0 0-5.35-5.35z" transform="translate(-1102.44 -65.83)"/></g></g><g id="_Grupo_2" data-name="&lt;Grupo&gt;"><path id="_Caminho_composto_" data-name="&lt;Caminho composto&gt;" class="cls-1" d="M1120.33 101.61a17.89 17.89 0 1 1 12.67-5.24 17.77 17.77 0 0 1-12.67 5.24zm0-34.58A16.69 16.69 0 1 0 1137 83.72 16.71 16.71 0 0 0 1120.33 67z" transform="translate(-1102.44 -65.83)"/></g></g></g></g></g></g></svg>