<svg xmlns="http://www.w3.org/2000/svg" xmlns: xlink = "http://www.w3.org/1999/xlink" width = "70" height = "26" viewBox = "0 0 70 26" > <defs><path id="3mp8a" d = "M1440 3154.21h29.73v25.42H1440z" > </path><path id="3mp8d" d="M1467.5 3154.21h-22.2a2.28 2.28 0 0 0-2.01 3.35l2.22 4.2h-4.03a1.48 1.48 0 0 0-1.3 2.18l7.13 13.52a1.48 1.48 0 0 0 2.62 0l1.94-3.66 2.43 4.61a2.28 2.28 0 0 0 4.04 0l11.13-20.93a2.22 2.22 0 0 0-1.97-3.27m-9.98 8.95l-4.8 9.03a.98.98 0 0 1-1.73 0l-4.75-9a.99.99 0 0 1 .87-1.44h9.57a.96.96 0 0 1 .84 1.4"></path > <path id="3mp8e" d = "M1491.11 3163.93h-2.43v8.32c0 .16-.12.28-.28.29h-1.87a.29.29 0 0 1-.3-.3v-8.31h-2.43a.28.28 0 0 1-.29-.27v-1.48a.27.27 0 0 1 .29-.27h7.31c.16 0 .3.11.3.27v1.47c0 .16-.14.28-.3.28" > </path><path id="3mp8f" d="M1498.91 3172.48c-.5.07-1.34.18-2.89.18-1.84 0-3.47-.47-3.47-3.07v-4.75c0-2.6 1.64-3.06 3.49-3.06 1.54 0 2.37.11 2.87.19.2.02.29.1.29.28v1.33c0 .16-.13.29-.29.29h-3.01c-.68 0-.92.23-.92.97v1.3h3.82c.15 0 .28.13.28.29v1.36c0 .16-.13.28-.28.28h-3.82v1.52c0 .74.24.97.92.97h3.01c.16 0 .29.13.29.29v1.33c0 .18-.09.27-.29.3"></path > <path id="3mp8b" d = "M1500.58 3161.91h9.3v10.63h-9.3z" > </path><path id="3mp8h" d="M1509.7 3172.53h-2.27c-.19 0-.28-.06-.38-.21l-1.97-3.13-1.78 3.06c-.1.17-.2.29-.36.29h-2.11c-.15 0-.22-.09-.22-.19 0-.03.01-.07.03-.1l3.1-5.16-3.13-4.9a.2.2 0 0 1-.03-.1c.01-.1.1-.18.21-.18h2.3c.16 0 .28.14.36.27l1.83 2.89 1.77-2.89c.07-.13.2-.27.36-.27h2.11c.11 0 .2.08.22.19a.2.2 0 0 1-.03.08l-3.12 4.94 3.25 5.13c.03.04.04.1.04.14 0 .09-.07.14-.18.14"></path > <path id="3mp8i" d = "M1480.09 3161.94c-.1 0-.2.08-.22.18l-2.07 7.68c-.03.16-.07.21-.2.21s-.17-.05-.2-.21l-2.08-7.68a.22.22 0 0 0-.22-.18h-2.04a.22.22 0 0 0-.21.27l2.56 8.9c.34 1.05 1.16 1.55 2.2 1.55 1 0 1.87-.53 2.2-1.55.05-.12 2.52-8.9 2.52-8.9a.22.22 0 0 0-.21-.27z" > </path><clipPath id="3mp8c"><use xlink:href="#3mp8a"></use > </clipPath><clipPath id="3mp8g"><use xlink:href="#3mp8b"></use > </clipPath><clipPath id="3mp8j"><use xlink:href="#3mp8a"></use > </clipPath></defs > <g><g transform="translate(-1440 -3154)" > <g><g></g><g clip-path="url(#3mp8c)"><use fill="#f71963" xlink:href="#3mp8d"></use > </g></g > <g><use fill="#f71963" xlink: href = "#3mp8e" > </use></g > <g><use fill="#f71963" xlink: href = "#3mp8f" > </use></g > <g><g></g><g clip-path="url(#3mp8g)"><use fill="#f71963" xlink:href="#3mp8h"></use > </g></g > <g><use fill="#f71963" xlink: href = "#3mp8i" > </use></g > <g><g></g><g clip-path="url(#3mp8j)"><use fill="#f71963" xlink:href="#3mp8d"></use > </g></g > </g></g > </svg>