<svg data-name="Camada 1" xmlns="http://www.w3.org/2000/svg" viewBox="0 0 22.24 22.24"><path d="M22.25 10.84a10.94 10.94 0 0 1-16.2 9.49l-6 1.92 2-5.82a10.73 10.73 0 0 1-1.57-5.59 10.92 10.92 0 0 1 21.77 0zM11.33 1.73a9.16 9.16 0 0 0-9.19 9.11 9 9 0 0 0 1.75 5.34l-1.15 3.38 3.53-1.12a9.13 9.13 0 1 0 5.06-16.71zm5.52 11.6a1.4 1.4 0 0 0-.51-.31c-.27-.13-1.58-.78-1.83-.86a.42.42 0 0 0-.6.13c-.18.27-.69.86-.85 1a.41.41 0 0 1-.58.07 7.38 7.38 0 0 1-2.15-1.32 8 8 0 0 1-1.49-1.84.38.38 0 0 1 .1-.47c.12-.12.27-.31.4-.47a1.77 1.77 0 0 0 .27-.44.49.49 0 0 0 0-.47c-.07-.13-.6-1.44-.83-2s-.45-.44-.6-.44h-.51a1 1 0 0 0-.71.33 3 3 0 0 0-.94 2.22 5.14 5.14 0 0 0 1.12 2.73 11 11 0 0 0 4.57 4c2.72 1.06 2.72.71 3.21.66a2.7 2.7 0 0 0 1.81-1.26 2.21 2.21 0 0 0 .11-1.26z" fill="#004774" data-name="TIP - ATENDIMENTO"/></svg>