<svg xmlns="http://www.w3.org/2000/svg" xmlns:xlink="http://www.w3.org/1999/xlink" width="46" height="46" viewBox="0 0 46 46"><defs><path id="m6pia" d="M1314.494 1356.677a22.855 22.855 0 1 1-43.473 14.126 22.855 22.855 0 0 1 43.473-14.126zm-21.736-13.732a20.794 20.794 0 0 0-19.777 14.369 20.794 20.794 0 0 0 7.553 23.25 20.793 20.793 0 0 0 24.448 0 20.792 20.792 0 0 0 7.553-23.25 20.794 20.794 0 0 0-19.777-14.369z"/><path id="m6pib" d="M1285.058 1370.138c-.73-.24-1.223-.72-1.488-1.445-.645-1.772-.835-9.185.405-10.645a2.404 2.404 0 0 1 1.621-.862c3.343-.36 13.677-.31 14.868.12.697.252 1.193.709 1.462 1.407.706 1.83.73 8.496-.092 10.262-.225.478-.587.817-1.049 1.057-1.248.655-14.085.646-15.727.106zm5.312-3.474l6.021-3.122c-2.02-1.056-4.014-2.094-6.02-3.143z"/></defs><g><g transform="translate(-1270 -1341)"><use fill="#80754e" xlink:href="#m6pia"/></g><g transform="translate(-1270 -1341)"><use fill="#80754e" xlink:href="#m6pib"/></g></g></svg>